<svg width="16" height="16" viewBox="0 0 16 16" fill="none" xmlns="http://www.w3.org/2000/svg">
<path fill-rule="evenodd" clip-rule="evenodd" d="M7.67589 2.08403C7.77499 2.02892 7.8865 2 7.99989 2C8.11328 2 8.22479 2.02892 8.32389 2.08403L14.3239 5.41736C14.4278 5.47512 14.5143 5.5596 14.5745 5.66204C14.6348 5.76449 14.6666 5.88118 14.6666 6.00003V10.6667C14.6666 10.8435 14.5963 11.0131 14.4713 11.1381C14.3463 11.2631 14.1767 11.3334 13.9999 11.3334C13.8231 11.3334 13.6535 11.2631 13.5285 11.1381C13.4035 11.0131 13.3332 10.8435 13.3332 10.6667V7.13336L12.6666 7.50336V7.50603L8.62189 9.51669C8.4298 9.6122 8.21751 9.65995 8.00303 9.65589C7.78855 9.65182 7.57822 9.59607 7.38989 9.49336L1.57122 6.31936C1.51195 6.28702 1.44811 6.26386 1.38189 6.25069C1.32071 6.09985 1.31683 5.93183 1.37099 5.77832C1.42514 5.62481 1.5336 5.49642 1.67589 5.41736L7.67589 2.08403ZM3.33322 8.79936V11.3334C3.33329 11.4571 3.36781 11.5784 3.43293 11.6837C3.49804 11.789 3.59117 11.874 3.70189 11.9294L7.70189 13.9294C7.79442 13.9756 7.89645 13.9997 7.99989 13.9997C8.10333 13.9997 8.20536 13.9756 8.29789 13.9294L12.2979 11.9294C12.4086 11.874 12.5017 11.789 12.5669 11.6837C12.632 11.5784 12.6665 11.4571 12.6666 11.3334V9.16269L8.61122 11.0587C8.42177 11.1473 8.21414 11.1901 8.0051 11.1836C7.79607 11.1771 7.59148 11.1215 7.40789 11.0214L3.33322 8.80003V8.79936Z" fill="white"/>
</svg>
