<svg width="26" height="26" viewBox="0 0 26 26" fill="none" xmlns="http://www.w3.org/2000/svg">
  <path d="M12.4433 3.63229L12.5652 3.625C12.8204 3.62503 13.0666 3.7187 13.2573 3.88825C13.4479 4.05779 13.5697 4.2914 13.5996 4.54479L13.6069 4.66667V11.9583H20.8985C21.1537 11.9584 21.3999 12.052 21.5906 12.2216C21.7813 12.3911 21.9031 12.6247 21.9329 12.8781L21.9402 13C21.9402 13.2551 21.8465 13.5014 21.677 13.6921C21.5074 13.8827 21.2738 14.0045 21.0204 14.0344L20.8985 14.0417H13.6069V21.3333C13.6068 21.5885 13.5132 21.8347 13.3436 22.0254C13.1741 22.216 12.9405 22.3379 12.6871 22.3677L12.5652 22.375C12.3101 22.375 12.0638 22.2813 11.8732 22.1118C11.6825 21.9422 11.5607 21.7086 11.5308 21.4552L11.5235 21.3333V14.0417H4.23188C3.97674 14.0416 3.73049 13.948 3.53983 13.7784C3.34917 13.6089 3.22736 13.3753 3.19751 13.1219L3.19022 13C3.19025 12.7449 3.28392 12.4986 3.45346 12.3079C3.623 12.1173 3.85662 11.9955 4.11001 11.9656L4.23188 11.9583H11.5235V4.66667C11.5236 4.41153 11.6173 4.16527 11.7868 3.97461C11.9563 3.78395 12.19 3.66214 12.4433 3.63229L12.5652 3.625L12.4433 3.63229Z" fill="white" />
</svg>