<svg width="320" height="128" viewBox="0 0 320 128" fill="none" xmlns="http://www.w3.org/2000/svg">
<g clip-path="url(#clip0)">
<path opacity="0.1" d="M6.19602 40.811C3.78661 45.2649 10.8705 49.2705 16.4423 52.4964C24.0688 56.922 30.0865 62.2771 34.105 68.2144C36.527 71.8024 38.2117 75.6624 37.7599 79.534C36.4799 90.5145 19.545 97.8303 6.01406 105.104C4.09719 106.144 2.18033 107.232 1.06347 108.635C-2.52241 113.134 3.57327 118.32 10.287 121.19C34.196 131.404 68.7058 128.366 91.8964 117.552C103.906 111.951 114.227 104.334 128.781 101.844C138.086 100.259 147.962 101.01 157.591 101.499C172.027 102.229 186.53 102.334 200.991 101.813C206.067 101.621 211.376 101.323 215.627 99.6196C226.391 95.3132 224.574 85.1028 232.342 78.8386C237.926 74.3368 247.467 72.6012 255.771 70.1128C268.553 66.2615 279.219 60.2181 286.463 52.7225C293.129 45.7936 296.583 37.9164 299.953 30.1504C302.494 24.3153 305.045 18.2044 302.892 12.3099C300.74 6.41545 292.245 0.91178 282.394 1.42901C274.83 1.82555 268.812 5.47486 261.528 6.78134C244.078 9.91917 227.137 -0.978968 209.035 0.0727246C197.638 0.733624 188.445 6.01124 181.496 11.5666C174.547 17.122 168.665 23.3766 159.489 27.5604C145.214 34.0736 125.656 34.3035 108.182 32.1944C90.7074 30.0852 73.9419 25.934 56.2729 24.5509C45.8635 23.7368 37.8854 27.524 28.5113 29.6063C19.909 31.5181 9.38347 34.9203 6.19602 40.811Z" fill="#B3483E"/>
<path opacity="0.1" d="M43.2785 128C55.8818 128 66.0989 126.105 66.0989 123.766C66.0989 121.428 55.8818 119.533 43.2785 119.533C30.6751 119.533 20.4581 121.428 20.4581 123.766C20.4581 126.105 30.6751 128 43.2785 128Z" fill="#6C63FF"/>
<path opacity="0.1" d="M259.053 72.0879C292.713 72.0879 320 70.9823 320 69.6186C320 68.2548 292.713 67.1493 259.053 67.1493C225.392 67.1493 198.105 68.2548 198.105 69.6186C198.105 70.9823 225.392 72.0879 259.053 72.0879Z" fill="#6C63FF"/>
<g opacity="0.5">
<path opacity="0.5" d="M222.205 13.1031C223.051 13.1031 223.862 13.3082 224.459 13.6732C225.057 14.0382 225.393 14.5333 225.393 15.0495V69.1666H219.018V15.0475C219.019 14.5317 219.355 14.0371 219.953 13.6725C220.55 13.3079 221.361 13.1031 222.205 13.1031Z" fill="#1B1B1B"/>
<path opacity="0.5" d="M292.144 13.1031C292.99 13.1031 293.8 13.3081 294.398 13.6731C294.996 14.0381 295.332 14.5332 295.332 15.0494V69.1665H288.941V15.0474C288.942 14.7912 289.025 14.5375 289.186 14.301C289.348 14.0644 289.584 13.8497 289.881 13.669C290.179 13.4884 290.532 13.3454 290.92 13.2483C291.309 13.1511 291.725 13.1018 292.144 13.1031Z" fill="#1B1B1B"/>
<path opacity="0.5" d="M310.748 25.2004C312.508 25.2004 313.936 24.3291 313.936 23.2542C313.936 22.1792 312.508 21.3079 310.748 21.3079L203.605 21.3079C201.844 21.3079 200.417 22.1792 200.417 23.2542C200.417 24.3291 201.844 25.2004 203.605 25.2004L310.748 25.2004Z" fill="#1B1B1B"/>
<path opacity="0.5" d="M217.123 17.4669C217.123 16.6248 216.005 15.9421 214.626 15.9421C213.247 15.9421 212.128 16.6248 212.128 17.4669V29.0375C212.128 29.8796 213.247 30.5623 214.626 30.5623C216.005 30.5623 217.123 29.8796 217.123 29.0375V17.4669Z" fill="#1B1B1B"/>
<path opacity="0.5" d="M212.129 18.8346C212.129 17.9925 211.011 17.3098 209.631 17.3098C208.252 17.3098 207.134 17.9925 207.134 18.8346V27.6715C207.134 28.5137 208.252 29.1964 209.631 29.1964C211.011 29.1964 212.129 28.5137 212.129 27.6715V18.8346Z" fill="#1B1B1B"/>
<path opacity="0.5" d="M297.227 29.0374C297.227 29.8796 298.345 30.5623 299.724 30.5623C301.103 30.5623 302.221 29.8796 302.221 29.0374V17.4669C302.221 16.6247 301.103 15.942 299.724 15.942C298.345 15.942 297.227 16.6247 297.227 17.4669V29.0374Z" fill="#1B1B1B"/>
<path opacity="0.5" d="M302.221 27.6698C302.221 28.5119 303.339 29.1946 304.718 29.1946C306.097 29.1946 307.216 28.5119 307.216 27.6698V18.8329C307.216 17.9907 306.097 17.308 304.718 17.308C303.339 17.308 302.221 17.9907 302.221 18.8329V27.6698Z" fill="#1B1B1B"/>
</g>
<g opacity="0.5">
<path opacity="0.5" d="M250.811 35.7538H263.843C265.258 35.7538 266.614 36.0969 267.614 36.7076C268.615 37.3184 269.176 38.1467 269.176 39.0104V52.6805H245.49V39.0104C245.49 38.148 246.05 37.3208 247.048 36.7103C248.045 36.0998 249.399 35.7558 250.811 35.7538Z" fill="#1B1B1B"/>
<path opacity="0.5" d="M259.053 51.4526H255.586V58.5079H259.053V51.4526Z" fill="#1B1B1B"/>
<path opacity="0.5" d="M252.119 59.3892H248.653V66.4445H252.119V59.3892Z" fill="#1B1B1B"/>
<path opacity="0.5" d="M266.563 59.3892H263.097V66.4445H266.563V59.3892Z" fill="#1B1B1B"/>
<path opacity="0.5" d="M269.164 57.9772H245.478V59.9178H269.164V57.9772Z" fill="#1B1B1B"/>
</g>
<path opacity="0.1" d="M148.42 116.535C220.208 116.535 278.403 113.929 278.403 110.715C278.403 107.501 220.208 104.895 148.42 104.895C76.6329 104.895 18.4376 107.501 18.4376 110.715C18.4376 113.929 76.6329 116.535 148.42 116.535Z" fill="#B3483E"/>
<path d="M182.074 89.9897C182.074 89.9897 191.028 92.4589 195.36 92.4589C195.36 92.4589 199.981 93.1639 202.576 93.8708C205.17 94.5776 215.285 94.9282 215.285 94.9282C215.285 94.9282 227.128 97.5737 228.571 98.8093C230.014 100.045 234.347 94.4033 234.347 94.4033L232.035 90.8766L188.427 85.7618L182.074 89.9897Z" fill="#FFB9B9"/>
<path opacity="0.05" d="M182.074 89.9897C182.074 89.9897 191.028 92.4589 195.36 92.4589C195.36 92.4589 199.981 93.1639 202.576 93.8708C205.17 94.5776 215.285 94.9282 215.285 94.9282C215.285 94.9282 227.128 97.5737 228.571 98.8093C230.014 100.045 234.347 94.4033 234.347 94.4033L232.035 90.8766L188.427 85.7618L182.074 89.9897Z" fill="black"/>
<path d="M226.268 97.7519C226.268 97.7519 231.755 102.158 229.446 104.807C227.137 107.457 228.003 107.453 229.446 107.629C230.889 107.805 238.977 108.865 239.846 104.983C240.715 101.102 242.447 92.4608 242.447 92.4608L230.588 91.754C230.588 91.754 233.779 98.2806 226.268 97.7519Z" fill="#BABABA"/>
<path d="M158.099 84.17L182.94 91.2253C182.94 91.2253 190.739 87.5204 190.155 85.5818L161.271 81.3482L158.099 84.17Z" fill="#1B1B1B"/>
<path opacity="0.1" d="M158.099 84.17L182.94 91.2253C182.94 91.2253 190.739 87.5204 190.155 85.5818L161.271 81.3482L158.099 84.17Z" fill="black"/>
<path d="M262.375 93.3419L259.765 97.2211L253.71 98.0985C252.013 97.2339 250.198 96.4597 248.285 95.7844C245.026 94.635 240.737 93.5105 236.678 93.6886C236.678 93.6886 220.502 92.1006 219.636 91.3899C219.636 91.3899 209.236 89.978 206.927 90.1543C205.813 90.2386 203.42 89.7501 201.242 89.2194C198.905 88.6447 196.816 88.0375 196.816 88.0375L204.326 80.8059C205.202 81.0362 206.104 81.2282 207.024 81.3806C209.895 81.894 215.062 82.5606 222.525 82.5606C234.657 82.5606 251.41 90.1447 251.41 90.1447C251.41 90.1447 251.576 90.1792 251.862 90.2309C253.117 90.4627 256.693 91.0086 258.343 90.1447C260.351 89.1083 262.375 93.3419 262.375 93.3419Z" fill="#FFB9B9"/>
<path opacity="0.1" d="M262.375 93.342L259.765 97.2212L253.71 98.0985C252.013 97.234 250.199 96.4598 248.286 95.7844C257.095 96.1886 251.834 90.2501 251.834 90.2501H251.853C253.107 90.4819 256.684 91.0278 258.334 90.1639C260.351 89.1084 262.375 93.342 262.375 93.342Z" fill="black"/>
<path d="M248.32 95.934C248.32 95.934 255.307 101.917 252.367 105.286C249.427 108.656 250.529 108.654 252.367 108.88C254.205 109.106 264.505 110.453 265.606 105.512C266.453 101.714 265.71 94.4226 265.321 91.2579C265.296 91.0581 265.206 90.8634 265.057 90.685C264.908 90.5065 264.702 90.348 264.452 90.2186C264.201 90.0892 263.911 89.9915 263.598 89.9311C263.285 89.8708 262.956 89.849 262.629 89.8671L252.411 90.4418C252.411 90.4418 257.882 96.6083 248.32 95.934Z" fill="#BABABA"/>
<path d="M82.4189 101.807L82.7075 110.451L85.8855 111.861H96.8628L98.8832 110.098V101.807L95.7051 100.043H85.3083L82.4189 101.807Z" fill="#FF6859"/>
<path opacity="0.2" d="M84.1506 101.984C84.1506 101.984 86.1741 109.92 84.1506 110.627L82.7075 110.451L82.4189 101.985L84.1506 101.984Z" fill="white"/>
<path d="M107.837 101.279L110.149 99.8667H121.129L123.442 101.279C123.442 101.279 126.331 106.393 124.019 109.744L121.412 111.332H110.431L107.831 109.92L107.837 101.279Z" fill="#FF6859"/>
<path opacity="0.1" d="M82.4189 101.807L82.7075 110.451L85.8855 111.861H96.8628L98.8832 110.098V101.807L95.7051 100.043H85.3083L82.4189 101.807Z" fill="black"/>
<path opacity="0.1" d="M107.837 101.279L110.149 99.8667H121.129L123.442 101.279C123.442 101.279 126.331 106.393 124.019 109.744L121.412 111.332H110.431L107.831 109.92L107.837 101.279Z" fill="black"/>
<path opacity="0.2" d="M110.431 101.631C110.431 101.631 112.744 107.805 110.431 109.92H107.831V101.279L110.431 101.631Z" fill="white"/>
<path d="M98.8832 71.9997C98.8832 71.9997 100.038 78.8788 100.038 79.76C100.038 80.6412 99.4604 86.4648 101.192 92.1063C102.924 97.7479 100.038 104.803 100.038 104.803H109.569L113.613 85.7541L110.723 75.7007L109.569 72.5265L98.8832 71.9997Z" fill="#FFB9B9"/>
<path opacity="0.05" d="M98.8832 71.9997C98.8832 71.9997 100.038 78.8788 100.038 79.76C100.038 80.6412 99.4604 86.4648 101.192 92.1063C102.924 97.7479 100.038 104.803 100.038 104.803H109.569L113.613 85.7541L110.723 75.7007L109.569 72.5265L98.8832 71.9997Z" fill="black"/>
<path d="M97.1514 54.5386C97.1514 54.5386 84.4424 54.7148 94.5506 67.5899C94.5506 67.5899 97.1514 72.8809 97.1514 73.764C97.1514 74.6472 110.149 74.6452 111.583 73.764C113.017 72.8828 109.271 65.6512 109.271 62.2989C109.271 58.9465 105.528 53.4811 97.1514 54.5386Z" fill="#BABABA"/>
<path opacity="0.05" d="M97.1514 54.5386C97.1514 54.5386 84.4424 54.7148 94.5506 67.5899C94.5506 67.5899 97.1514 72.8809 97.1514 73.764C97.1514 74.6472 110.149 74.6452 111.583 73.764C113.017 72.8828 109.271 65.6512 109.271 62.2989C109.271 58.9465 105.528 53.4811 97.1514 54.5386Z" fill="black"/>
<path d="M81.8415 46.9506C81.8415 46.9506 92.8219 54.1822 102.061 48.8912L100.907 67.5879C100.907 67.5879 85.8854 56.4772 75.4948 57.3584L81.8415 46.9506Z" fill="#FFB9B9"/>
<path opacity="0.1" d="M207.012 81.4018C206.573 83.4688 205.192 87.8212 201.23 89.2311C198.893 88.6564 196.803 88.0491 196.803 88.0491L204.314 80.8176C205.189 81.0511 206.091 81.2463 207.012 81.4018Z" fill="black"/>
<path d="M206.337 80.283C206.337 80.283 205.471 88.9264 198.538 89.6314L156.662 85.0185C154.63 84.793 152.719 84.2668 151.096 83.486C149.405 82.6737 147.332 81.5703 146.105 80.5589C145.44 80.0071 145.038 79.4803 145.104 79.0455C145.393 77.1049 158.102 72.5189 153.769 64.4061C154.385 64.1083 155.071 63.8681 155.802 63.6935C159.42 62.7759 167.746 62.1016 179.765 69.6971C179.765 69.7067 202.005 80.6431 206.337 80.283Z" fill="#1B1B1B"/>
<path d="M93.1074 102.512L93.3961 111.156L96.571 112.568H107.548L109.572 110.803V102.512L106.394 100.75H95.9937L93.1074 102.512Z" fill="#FF6859"/>
<path opacity="0.2" d="M94.8392 102.696C94.8392 102.696 96.8628 110.633 94.8392 111.34L93.3961 111.163L93.1074 102.696H94.8392Z" fill="white"/>
<path d="M124.882 101.807L127.194 100.395H138.174L140.486 101.807C140.486 101.807 143.376 106.922 141.064 110.272L138.463 111.861H127.482L124.882 110.449V101.807Z" fill="#FF6859"/>
<path opacity="0.2" d="M127.479 102.16C127.479 102.16 129.791 108.334 127.479 110.449H124.878V101.807L127.479 102.16Z" fill="white"/>
<path d="M109.49 105.16H125.117C126.34 105.16 127.332 105.83 127.332 106.66C127.332 107.487 126.34 108.16 125.117 108.16H109.49C108.163 108.16 107.134 107.376 107.294 106.485C107.423 105.729 108.37 105.16 109.49 105.16Z" fill="#FF6859"/>
<path opacity="0.1" d="M154.632 77.6434C151.542 78.9652 148.285 79.831 146.102 80.5686C145.437 80.0169 145.035 79.4901 145.101 79.0552C145.39 77.1147 158.099 72.5286 153.766 64.4158C154.382 64.118 155.067 63.8778 155.799 63.7032C156.478 63.6944 157.153 63.6379 157.81 63.5346C157.81 63.5346 160.408 75.1741 154.632 77.6434Z" fill="black"/>
<path d="M89.7851 60.6226C89.7851 60.6226 94.1177 63.2682 98.3059 64.9444C102.171 66.4903 95.2722 50.9218 95.2722 50.9218C95.2722 50.9218 99.5514 48.8146 102.064 47.5636C103.743 46.7206 105.881 46.2963 108.05 46.3759C113.832 46.6039 124.424 48.0885 132.969 55.2454C145.39 65.6512 156.656 63.5344 156.656 63.5344C156.656 63.5344 159.256 75.1759 153.478 77.6451C147.699 80.1144 141.346 80.9956 142.497 82.4075C143.649 83.8193 137.299 75.5283 122.855 74.1184C108.411 72.7085 92.5239 66.5343 92.8157 63.5364C92.8188 63.5344 88.6306 61.5096 89.7851 60.6226Z" fill="#BABABA"/>
<path opacity="0.1" d="M86.7514 51.5483C86.75 51.0384 86.6765 50.5295 86.5318 50.0273C82.7483 48.8779 83.2847 47.3147 83.2847 47.3147L76.9286 57.7205C79.2534 57.529 81.8102 57.9274 84.3765 58.6783C87.7553 57.0481 86.7514 54.3624 86.7514 51.5483Z" fill="black"/>
<path d="M74.0424 60.1839C82.0195 60.1839 88.4863 56.2352 88.4863 51.3643C88.4863 46.4933 82.0195 42.5446 74.0424 42.5446C66.0652 42.5446 59.5984 46.4933 59.5984 51.3643C59.5984 56.2352 66.0652 60.1839 74.0424 60.1839Z" fill="#FFB9B9"/>
<path opacity="0.1" d="M60.9193 53.3528C60.6526 53.8757 60.2416 54.414 59.4667 54.6937C58.5255 55.0347 57.2267 54.8661 56.3891 54.4255C55.5514 53.9849 55.0996 53.3259 54.8644 52.6669C54.5254 51.7128 54.5793 50.7222 55.0212 49.7839C55.3977 48.9889 56.0471 48.2514 56.32 47.4372C56.6118 46.5713 56.4643 45.6652 56.7906 44.8032C57.233 43.6347 58.4942 42.6558 59.724 41.719C60.1094 41.3614 60.6089 41.055 61.1927 40.818C61.7765 40.581 62.4325 40.4184 63.1216 40.3397L69.1671 39.2267C70.3132 38.9923 71.4912 38.8205 72.6871 38.7133C74.2245 38.6172 75.7778 38.7004 77.2644 38.9585C78.4481 39.1404 79.5712 39.4463 80.5836 39.8627C81.5866 40.3178 82.47 40.8636 83.2032 41.4815C86.4 44.0331 88.2228 48.2073 91.5201 50.7187C90.2181 50.9639 88.9161 50.144 87.6142 50.3931C87.4291 50.4418 87.2229 50.4519 87.0275 50.4218C86.8339 50.3576 86.6822 50.2548 86.5977 50.1306C85.4504 48.9068 83.6446 47.9632 81.4871 47.4602C79.8871 47.0905 77.7224 47.0924 76.8471 47.9889C76.2542 48.5943 76.4926 49.3586 76.6495 50.0578C76.8063 50.757 76.7781 51.5904 75.8714 52.0214C75.3704 52.2281 74.7873 52.3486 74.1836 52.37C71.3696 52.5952 68.5086 52.4242 65.8196 51.87C64.8785 51.6785 63.9216 51.0789 62.9271 51.2704C61.5843 51.529 61.2738 52.6574 60.9193 53.3528Z" fill="black"/>
<path d="M60.6024 53.1592C60.3357 53.6822 59.9247 54.2205 59.1498 54.5002C58.2086 54.8412 56.9098 54.6726 56.0722 54.232C55.2345 53.7914 54.7828 53.1324 54.5475 52.4734C54.2085 51.5193 54.2624 50.5287 54.7043 49.5904C55.0808 48.7954 55.7302 48.0579 56.0031 47.2437C56.2949 46.3778 56.1475 45.4717 56.4737 44.6097C56.9161 43.4411 58.1773 42.4622 59.4071 41.5255C59.7925 41.1679 60.292 40.8615 60.8758 40.6245C61.4596 40.3875 62.1156 40.2249 62.8047 40.1462L68.8502 39.0332C69.9965 38.7995 71.1744 38.6283 72.3702 38.5218C73.9076 38.4256 75.4609 38.5089 76.9475 38.767C78.1312 38.9488 79.2543 39.2547 80.2667 39.6711C81.2697 40.1262 82.1531 40.672 82.8863 41.2899C86.0832 43.8415 87.9059 48.0157 91.2032 50.5271C89.9012 50.7723 88.5992 49.9524 87.2973 50.2015C87.1122 50.2502 86.906 50.2603 86.7106 50.2302C86.5147 50.1667 86.3606 50.0639 86.2745 49.939C85.1272 48.7152 83.3214 47.7716 81.1639 47.2686C79.5639 46.8989 77.3992 46.9008 76.5239 47.7973C75.931 48.4027 76.1694 49.167 76.3263 49.8662C76.4832 50.5655 76.4549 51.3988 75.5482 51.8298C75.0472 52.0365 74.4641 52.157 73.8604 52.1784C71.0465 52.4036 68.1855 52.2326 65.4965 51.6784C64.5553 51.4869 63.5984 50.8873 62.6039 51.0788C61.2675 51.3355 60.9569 52.4639 60.6024 53.1592Z" fill="#5B5B5B"/>
<g opacity="0.1">
<path opacity="0.1" d="M96.251 50.441L95.2722 50.9237C95.2722 50.9237 99.3162 60.048 99.4762 63.6321C101.54 63.2912 97.5687 53.529 96.251 50.441Z" fill="black"/>
<path opacity="0.1" d="M154.039 76.2334C148.264 78.7027 141.908 79.5839 143.059 80.9957C144.21 82.4076 137.86 74.1166 123.417 72.7067C109.867 71.383 95.0463 65.8678 93.5028 62.7147C91.3381 61.5844 89.7632 60.6247 89.7632 60.6247C88.6087 61.5059 92.7969 63.5346 92.7969 63.5346C92.5083 66.5326 108.395 72.7067 122.836 74.1166C137.277 75.5265 143.633 83.8175 142.479 82.4057C141.324 80.9938 147.677 80.1069 153.459 77.6433C155.112 76.9365 156.078 75.4787 156.618 73.7565C156.06 74.8465 155.231 75.7296 154.039 76.2334Z" fill="black"/>
</g>
<path d="M124.882 93.1658C124.016 93.8707 123.438 101.102 123.438 101.102C123.438 101.102 126.889 111.508 116.223 110.451C105.556 109.393 114.78 101.985 114.78 101.985L113.336 91.7559C107.849 82.9439 109.004 76.5877 109.004 76.5877L107.978 70.8274L107.558 68.4749L119.978 66.7106C119.639 66.9865 119.783 68.7067 120.088 70.7048C120.562 73.8349 121.421 77.6452 121.421 77.6452C124.013 79.4076 125.747 92.4589 124.882 93.1658Z" fill="#FFB9B9"/>
<path opacity="0.1" d="M107.26 50.8357C107.26 50.8357 94.5507 51.012 104.659 63.887C104.659 63.887 107.26 69.1781 107.26 70.0612C107.26 70.9443 120.257 70.9424 121.691 70.0612C123.125 69.18 119.379 61.9484 119.379 58.596C119.379 55.2436 115.636 49.7764 107.26 50.8357Z" fill="black"/>
<path opacity="0.1" d="M120.078 70.7048C117.38 71.1549 110.767 71.1952 107.965 70.8274L107.545 68.4749L119.965 66.7106C119.633 66.9846 119.777 68.7048 120.078 70.7048Z" fill="black"/>
<path d="M106.682 50.8357C106.682 50.8357 93.9733 51.012 104.082 63.887C104.082 63.887 106.682 69.1781 106.682 70.0612C106.682 70.9443 119.68 70.9424 121.114 70.0612C122.547 69.18 118.802 61.9484 118.802 58.596C118.802 55.2436 115.059 49.7764 106.682 50.8357Z" fill="#BABABA"/>
<g opacity="0.5">
<path opacity="0.5" d="M23.542 78.4458L14.3435 78.5607L12.8439 79.8212V84.1775L14.72 84.9801H23.542L25.4212 83.7196V79.5933L23.542 78.4458Z" fill="#1B1B1B"/>
<path opacity="0.2" d="M23.3569 79.1337C23.3569 79.1337 14.9083 79.9363 14.1585 79.1337L14.3467 78.559L23.3569 78.4441V79.1337Z" fill="white"/>
<path opacity="0.5" d="M24.295 91.0549L25.7977 91.9725V96.3287L24.295 97.2463C24.295 97.2463 18.8519 98.3957 15.2848 97.4761L13.5938 96.4436V92.0874L15.0966 91.0549H24.295Z" fill="#1B1B1B"/>
<path opacity="0.2" d="M23.9185 92.0874C23.9185 92.0874 17.349 93.005 15.0965 92.0874V91.0549H24.2949L23.9185 92.0874Z" fill="white"/>
<path opacity="0.5" d="M20.7279 84.9495V91.1505C20.706 91.3962 20.5257 91.6266 20.2265 91.7913C19.9273 91.9561 19.5335 92.0418 19.131 92.0298C18.7286 92.0418 18.3348 91.9561 18.0355 91.7913C17.7363 91.6266 17.5561 91.3962 17.5342 91.1505V84.9495C17.5342 84.4227 18.3687 84.0147 19.3161 84.076C19.6866 84.0895 20.0357 84.1862 20.2964 84.3474C20.557 84.5087 20.7107 84.7232 20.7279 84.9495Z" fill="#1B1B1B"/>
<path opacity="0.5" d="M38.2745 78.6223L29.0761 78.7372L27.5734 79.9977V84.3539L29.4526 85.1565H38.2745L40.1506 83.896V79.7697L38.2745 78.6223Z" fill="#1B1B1B"/>
<path opacity="0.2" d="M38.0864 79.3119C38.0864 79.3119 29.6377 80.1145 28.8879 79.3119L29.0762 78.7372L38.0864 78.6223V79.3119Z" fill="white"/>
<path opacity="0.5" d="M39.0242 91.233L40.527 92.1506V96.5068L39.0242 97.4244C39.0242 97.4244 33.5811 98.5738 30.014 97.6543L28.3231 96.6217V92.2636L29.8258 91.2311L39.0242 91.233Z" fill="#1B1B1B"/>
<path opacity="0.2" d="M38.6511 92.2636C38.6511 92.2636 32.0817 93.1812 29.8291 92.2636V91.2311H39.0275L38.6511 92.2636Z" fill="white"/>
<path opacity="0.5" d="M35.4509 85.1259V91.3268C35.429 91.5725 35.2488 91.8029 34.9496 91.9676C34.6503 92.1324 34.2565 92.2181 33.8541 92.2061C33.4516 92.2181 33.0578 92.1324 32.7586 91.9676C32.4594 91.8029 32.2791 91.5725 32.2572 91.3268V85.1259C32.2572 84.5991 33.0917 84.191 34.0392 84.2523C34.4096 84.2658 34.7588 84.3625 35.0194 84.5238C35.2801 84.685 35.4338 84.8995 35.4509 85.1259Z" fill="#1B1B1B"/>
<path opacity="0.5" d="M57.029 81.9401L49.4557 82.0339L48.2196 83.0722V86.6584L49.7663 87.3174H57.029L58.5726 86.2791V82.8826L57.029 81.9401Z" fill="#1B1B1B"/>
<path opacity="0.2" d="M56.8722 82.5052C56.8722 82.5052 49.9169 83.1662 49.2989 82.5052L49.4526 82.034L56.8691 81.9401L56.8722 82.5052Z" fill="white"/>
<path opacity="0.5" d="M57.6471 92.3192L58.8832 93.0739V96.66L57.6471 97.4148C57.6471 97.4148 53.1671 98.3592 50.2306 97.6063L48.8377 96.7577V93.1678L50.0738 92.3192H57.6471Z" fill="#1B1B1B"/>
<path opacity="0.2" d="M57.3365 93.1678C57.3365 93.1678 51.9279 93.9225 50.0738 93.1678V92.3192H57.6471L57.3365 93.1678Z" fill="white"/>
<path opacity="0.5" d="M54.7106 87.2925V92.3977C54.6911 92.5993 54.5421 92.7881 54.296 92.923C54.0498 93.0578 53.7264 93.1279 53.3961 93.118C53.0647 93.1279 52.7404 93.0573 52.494 92.9216C52.2477 92.7859 52.0994 92.5961 52.0815 92.3939V87.2925C52.0925 87.1845 52.1402 87.0791 52.2218 86.9831C52.3034 86.887 52.4169 86.8025 52.5552 86.7348C52.6935 86.6672 52.8534 86.6179 53.0247 86.5903C53.1959 86.5626 53.3748 86.5571 53.5498 86.5741C53.8543 86.5853 54.1414 86.6648 54.3557 86.7974C54.57 86.9301 54.6964 87.1064 54.7106 87.2925Z" fill="#1B1B1B"/>
<path opacity="0.5" d="M69.1546 82.0837L61.5813 82.1795L60.3452 83.2159V86.802L61.8918 87.4629H69.1546L70.7013 86.4246V83.0282L69.1546 82.0837Z" fill="#1B1B1B"/>
<path opacity="0.2" d="M69.0009 82.6508C69.0009 82.6508 62.0456 83.3117 61.4276 82.6508L61.5813 82.1796L68.9977 82.0857L69.0009 82.6508Z" fill="white"/>
<path opacity="0.5" d="M69.7726 92.4648L71.0087 93.2195V96.8056L69.7726 97.5604C69.7726 97.5604 65.2926 98.5048 62.3562 97.752L60.9663 96.9033V93.3096L62.2024 92.4609L69.7726 92.4648Z" fill="#1B1B1B"/>
<path opacity="0.2" d="M69.4651 93.3096C69.4651 93.3096 64.0564 94.0643 62.2023 93.3096V92.4609H69.7725L69.4651 93.3096Z" fill="white"/>
<path opacity="0.5" d="M66.8236 87.438V92.5432C66.8057 92.7455 66.6574 92.9353 66.4111 93.071C66.1648 93.2067 65.8405 93.2773 65.5091 93.2674C65.1777 93.2773 64.8534 93.2067 64.6071 93.071C64.3607 92.9353 64.2124 92.7455 64.1946 92.5432V87.438C64.2055 87.33 64.2533 87.2246 64.3349 87.1286C64.4164 87.0326 64.53 86.948 64.6682 86.8804C64.8065 86.8127 64.9664 86.7635 65.1377 86.7358C65.309 86.7081 65.4878 86.7026 65.6628 86.7196C65.9674 86.7308 66.2544 86.8103 66.4687 86.9429C66.683 87.0756 66.8094 87.2519 66.8236 87.438Z" fill="#1B1B1B"/>
</g>
<g opacity="0.8">
<path opacity="0.8" d="M36.7624 112.849C36.7624 112.849 32.3169 111.93 30.1742 114.322C29.6096 114.971 29.3223 115.696 29.3387 116.43C29.3552 117.164 29.6749 117.884 30.2683 118.523C31.6738 120.075 34.5695 122.088 40.0565 121.91C44.7122 121.759 46.2589 119.588 46.6793 117.571C46.84 116.814 46.6801 116.045 46.2147 115.337C45.7494 114.629 44.9941 114.006 44.0214 113.527C43.0486 113.048 41.8908 112.73 40.6588 112.602C39.4268 112.475 38.1619 112.543 36.9851 112.799L36.7624 112.849Z" fill="#FF6859"/>
<path opacity="0.1" d="M31.2126 118.736C30.6192 118.097 30.2995 117.377 30.2831 116.643C30.2666 115.908 30.554 115.183 31.1185 114.535C33.2581 112.142 37.7067 113.062 37.7067 113.062L37.9357 113.012C39.6306 112.637 41.4933 112.663 43.1593 113.083C42.239 112.748 41.2083 112.541 40.1417 112.479C39.075 112.417 37.999 112.5 36.9914 112.723L36.7624 112.772C36.7624 112.772 32.3169 111.853 30.1742 114.246C29.6096 114.894 29.3223 115.619 29.3387 116.353C29.3552 117.088 29.6749 117.808 30.2683 118.447C31.2095 119.468 32.7781 120.688 35.2879 121.353C33.5644 120.723 32.1552 119.818 31.2126 118.736Z" fill="white"/>
<path opacity="0.2" d="M34.4659 113.998C34.4659 113.998 36.113 114.79 40.113 113.998H34.4659Z" fill="black"/>
<path opacity="0.8" d="M34.1145 108.252C34.1145 108.252 36.938 112.926 36.7059 114.148L38.9427 114.004C38.9427 114.004 35.178 109.907 36.1192 108.257L34.1145 108.252Z" fill="#FF6859"/>
<path opacity="0.2" d="M34.1145 108.252C34.1145 108.252 36.938 112.926 36.7059 114.148L38.9427 114.004C38.9427 114.004 35.178 109.907 36.1192 108.257L34.1145 108.252Z" fill="black"/>
<path opacity="0.8" d="M45.6471 108.635C45.6471 108.635 41.1985 107.246 39.2095 108.393C37.2205 109.541 36.913 112.474 36.913 112.474C36.913 112.474 44.1664 113.085 45.6471 108.635Z" fill="#FF6859"/>
<path opacity="0.1" d="M45.6471 108.635C45.6471 108.635 41.1985 107.246 39.2095 108.393C37.2205 109.541 36.913 112.474 36.913 112.474C36.913 112.474 44.1664 113.085 45.6471 108.635Z" fill="white"/>
<path opacity="0.8" d="M36.913 112.466C36.913 112.466 38.0801 109.062 45.6471 108.635" stroke="#FF6859" stroke-miterlimit="10"/>
</g>
<path d="M55.5294 117.081C55.5294 117.081 51.0839 116.161 48.9412 118.554C48.3767 119.202 48.0893 119.927 48.1058 120.662C48.1222 121.396 48.4419 122.116 49.0353 122.755C50.4408 124.307 53.3365 126.32 58.8235 126.142C63.4792 125.99 65.0259 123.82 65.4463 121.803C65.6071 121.046 65.4471 120.277 64.9818 119.569C64.5164 118.861 63.7612 118.238 62.7884 117.759C61.8156 117.28 60.6578 116.962 59.4258 116.834C58.1939 116.707 56.929 116.774 55.7522 117.031L55.5294 117.081Z" fill="#FF6859"/>
<path opacity="0.1" d="M49.989 122.97C49.3956 122.331 49.0759 121.611 49.0595 120.876C49.043 120.142 49.3303 119.417 49.8949 118.768C52.0345 116.376 56.4831 117.295 56.4831 117.295L56.7121 117.246C58.407 116.871 60.2697 116.896 61.9357 117.316C61.0154 116.981 59.9847 116.775 58.9181 116.713C57.8514 116.65 56.7754 116.734 55.7678 116.956L55.5388 117.006C55.5388 117.006 51.0933 116.087 48.9506 118.479C48.386 119.128 48.0987 119.853 48.1151 120.587C48.1316 121.321 48.4513 122.041 49.0447 122.68C49.9859 123.701 51.5545 124.922 54.0643 125.586C52.3408 124.957 50.9316 124.052 49.989 122.97Z" fill="white"/>
<path opacity="0.2" d="M53.2424 118.23C53.2424 118.23 54.8894 119.021 58.8894 118.23H53.2424Z" fill="black"/>
<path d="M52.8878 112.479C52.8878 112.479 55.7113 117.153 55.4792 118.376L57.716 118.232C57.716 118.232 53.9513 114.134 54.8925 112.485L52.8878 112.479Z" fill="#FF6859"/>
<path opacity="0.2" d="M52.8878 112.479C52.8878 112.479 55.7113 117.153 55.4792 118.376L57.716 118.232C57.716 118.232 53.9513 114.134 54.8925 112.485L52.8878 112.479Z" fill="black"/>
<path d="M64.4235 112.868C64.4235 112.868 59.9749 111.479 57.9859 112.627C55.9969 113.774 55.6894 116.707 55.6894 116.707C55.6894 116.707 62.9428 117.316 64.4235 112.868Z" fill="#FF6859"/>
<path opacity="0.1" d="M64.4235 112.868C64.4235 112.868 59.9749 111.479 57.9859 112.627C55.9969 113.774 55.6894 116.707 55.6894 116.707C55.6894 116.707 62.9428 117.316 64.4235 112.868Z" fill="white"/>
<path d="M55.6894 116.707C55.6894 116.707 56.8565 113.303 64.4235 112.876" stroke="#FF6859" stroke-miterlimit="10"/>
<path d="M19.7647 105.985C19.7647 105.985 20.2008 105.688 19.382 105.57V105.081H19.8745C19.8741 104.491 19.5418 103.918 18.9331 103.459C18.3244 103 17.4762 102.683 16.5302 102.56V101.968H16.6588V101.202H13.4902V101.968H13.5812V102.568C12.6478 102.697 11.8141 103.016 11.2167 103.473C10.6194 103.93 10.2938 104.497 10.2934 105.081H10.7326V105.55C10.7326 105.55 9.691 105.851 10.7326 106.388C11.7741 106.924 11.611 107.324 11.611 107.324C11.611 107.324 11.1718 108.328 10.2965 108.462V117.801C10.2965 118.351 10.6545 118.879 11.2916 119.268C11.9288 119.657 12.793 119.876 13.6941 119.876H16.3796C17.278 119.874 18.1385 119.655 18.7729 119.266C19.4073 118.878 19.7639 118.352 19.7647 117.803V108.462C19.7647 108.462 18.2306 107.759 18.5098 107.324C18.874 106.86 19.2934 106.412 19.7647 105.985Z" fill="#1B1B1B"/>
</g>
<defs>
<clipPath id="clip0">
<rect width="320" height="128" fill="white"/>
</clipPath>
</defs>
</svg>
