<svg width="17" height="20" viewBox="0 0 17 20" fill="none" xmlns="http://www.w3.org/2000/svg">
<g clip-path="url(#clip0)">
<path d="M14.04 19.1999C12.956 20.2519 11.76 20.0879 10.62 19.5919C9.40797 19.0859 8.29997 19.0539 7.01997 19.5919C5.42597 20.2799 4.57997 20.0799 3.61997 19.1999C-1.80003 13.6199 -1.00003 5.11997 5.15997 4.79997C6.65397 4.87997 7.69997 5.62597 8.57997 5.68797C9.88797 5.42197 11.14 4.65998 12.54 4.75997C14.222 4.89597 15.48 5.55997 16.32 6.75397C12.86 8.83396 13.68 13.3939 16.858 14.6739C16.222 16.3439 15.406 17.9939 14.038 19.2139L14.04 19.1999ZM8.45997 4.73997C8.29797 2.25998 10.308 0.219988 12.62 0.019989C12.938 2.87998 10.02 5.01997 8.45997 4.73997Z" fill="black"/>
</g>
<defs>
<clipPath id="clip0">
<rect width="16.84" height="20" fill="white"/>
</clipPath>
</defs>
</svg>
