<svg width="30" height="30" viewBox="0 0 30 30" fill="none" xmlns="http://www.w3.org/2000/svg">
<path d="M6.24125 16.23C5.96971 16.2297 5.70548 16.3179 5.4885 16.4811C5.27151 16.6443 5.11359 16.8738 5.0386 17.1348C4.96361 17.3957 4.97564 17.674 5.07287 17.9276C5.1701 18.1811 5.34724 18.3961 5.5775 18.54L8.9375 21.9C9.05363 22.016 9.19149 22.1081 9.3432 22.1709C9.49491 22.2336 9.6575 22.2659 9.82169 22.2659C9.98587 22.2658 10.1484 22.2334 10.3001 22.1705C10.4518 22.1076 10.5896 22.0155 10.7056 21.8994C10.8217 21.7832 10.9137 21.6454 10.9765 21.4936C11.0393 21.3419 11.0716 21.1794 11.0715 21.0152C11.0714 20.851 11.039 20.6884 10.9762 20.5367C10.9133 20.3851 10.8211 20.2473 10.705 20.1312L9.30375 18.7312H18.7412C19.0728 18.7312 19.3907 18.5995 19.6251 18.3651C19.8596 18.1307 19.9912 17.8128 19.9912 17.4812C19.9912 17.1497 19.8596 16.8318 19.6251 16.5973C19.3907 16.3629 19.0728 16.2312 18.7412 16.2312H6.24125V16.23Z" fill="#CC5347"/>
<path d="M23.7588 13.7698C24.0303 13.77 24.2945 13.6819 24.5115 13.5186C24.7285 13.3554 24.8864 13.1259 24.9614 12.865C25.0364 12.604 25.0244 12.3257 24.9271 12.0722C24.8299 11.8187 24.6528 11.6037 24.4225 11.4598L21.0625 8.09977C20.828 7.86538 20.5099 7.73377 20.1783 7.73389C19.8467 7.734 19.5288 7.86584 19.2944 8.10039C19.06 8.33494 18.9284 8.65299 18.9285 8.98458C18.9286 9.31617 19.0605 9.63413 19.295 9.86852L20.6963 11.2685H11.2588C10.9272 11.2685 10.6093 11.4002 10.3749 11.6346C10.1405 11.8691 10.0088 12.187 10.0088 12.5185C10.0088 12.85 10.1405 13.168 10.3749 13.4024C10.6093 13.6368 10.9272 13.7685 11.2588 13.7685H23.7588V13.7698Z" fill="#CC5347"/>
</svg>
