<svg width="15" height="15" viewBox="0 0 15 15" fill="none" xmlns="http://www.w3.org/2000/svg">
<path fill-rule="evenodd" clip-rule="evenodd" d="M7.5 0.625C3.70312 0.625 0.625 3.70312 0.625 7.5C0.625 11.2969 3.70312 14.375 7.5 14.375C11.2969 14.375 14.375 11.2969 14.375 7.5C14.375 3.70312 11.2969 0.625 7.5 0.625ZM1.875 7.5C1.875 6.76131 2.02049 6.02986 2.30318 5.34741C2.58586 4.66495 3.00019 4.04485 3.52252 3.52252C4.04485 3.00019 4.66495 2.58586 5.34741 2.30318C6.02986 2.02049 6.76131 1.875 7.5 1.875C8.23868 1.875 8.97014 2.02049 9.65259 2.30318C10.335 2.58586 10.9551 3.00019 11.4775 3.52252C11.9998 4.04485 12.4141 4.66495 12.6968 5.34741C12.9795 6.02986 13.125 6.76131 13.125 7.5C13.125 8.99184 12.5324 10.4226 11.4775 11.4775C10.4226 12.5324 8.99184 13.125 7.5 13.125C6.00816 13.125 4.57742 12.5324 3.52252 11.4775C2.46763 10.4226 1.875 8.99184 1.875 7.5ZM8.125 4.375C8.125 4.20924 8.05915 4.05027 7.94194 3.93306C7.82473 3.81585 7.66576 3.75 7.5 3.75C7.33424 3.75 7.17527 3.81585 7.05806 3.93306C6.94085 4.05027 6.875 4.20924 6.875 4.375V7.5C6.875 7.59703 6.89759 7.69272 6.94098 7.77951C6.98437 7.86629 7.04738 7.94178 7.125 8L9.625 9.875C9.75761 9.97446 9.92429 10.0172 10.0884 9.99372C10.2525 9.97027 10.4005 9.88261 10.5 9.75C10.5995 9.61739 10.6422 9.45071 10.6187 9.28661C10.5953 9.12252 10.5076 8.97445 10.375 8.875L8.125 7.1875V4.375Z" fill="white"/>
</svg>
