<svg width="24" height="24" viewBox="0 0 24 24" fill="none" xmlns="http://www.w3.org/2000/svg">
<path fill-rule="evenodd" clip-rule="evenodd" d="M12.3113 18.832C12.1124 19.056 11.7625 19.056 11.5636 18.832L5.12911 11.5879C4.84266 11.2654 5.07159 10.7558 5.50293 10.7558H7.93757C8.21371 10.7558 8.43757 10.532 8.43757 10.2558V4.00576C8.43757 3.72962 8.66143 3.50576 8.93757 3.50576H14.9376C15.2137 3.50576 15.4376 3.72962 15.4376 4.00576V10.2558C15.4376 10.532 15.6614 10.7558 15.9376 10.7558H18.3719C18.8033 10.7558 19.0322 11.2654 18.7458 11.5879L12.3113 18.832L12.6851 19.1641L12.3113 18.832ZM10.816 19.4961C11.4127 20.168 12.4622 20.168 13.0589 19.4961L19.4934 12.252C20.3528 11.2845 19.666 9.75582 18.3719 9.75582H16.4376V4.00576C16.4376 3.17733 15.766 2.50576 14.9376 2.50576H8.93757C8.10914 2.50576 7.43757 3.17734 7.43757 4.00576V9.75582H5.50293C4.20892 9.75582 3.52211 11.2845 4.38145 12.252L10.816 19.4961Z" fill="#662924"/>
</svg>
