<svg width="20" height="20" viewBox="0 0 20 20" fill="none" xmlns="http://www.w3.org/2000/svg">
<path d="M13.5382 7.25347C14.4063 8.12153 14.8403 9.16898 14.8403 10.3958C14.8403 11.6227 14.4063 12.6701 13.5382 13.5382C12.6701 14.4062 11.6227 14.8403 10.3958 14.8403C9.16898 14.8403 8.12732 14.4005 7.27083 13.5208L10.3958 10.3958V5.95139C11.6227 5.95139 12.6701 6.38542 13.5382 7.25347ZM10.4132 3C12.4618 3 14.2095 3.72338 15.6563 5.17014C17.103 6.6169 17.8264 8.3588 17.8264 10.3958C17.8264 12.4329 17.103 14.1748 15.6563 15.6215C14.2095 17.0683 12.4618 17.7917 10.4132 17.7917C8.36458 17.7917 6.6169 17.0683 5.17014 15.6215C3.72338 14.1748 3 12.4329 3 10.3958C3 8.3588 3.72338 6.6169 5.17014 5.17014C6.6169 3.72338 8.36458 3 10.4132 3ZM10.4132 16.3333C12.0451 16.3333 13.4398 15.7546 14.5972 14.5972C15.7546 13.4398 16.3333 12.0394 16.3333 10.3958C16.3333 8.75231 15.7546 7.35185 14.5972 6.19444C13.4398 5.03704 12.0451 4.45833 10.4132 4.45833C8.78125 4.45833 7.38657 5.03704 6.22917 6.19444C5.07176 7.35185 4.49306 8.75231 4.49306 10.3958C4.49306 12.0394 5.07176 13.4398 6.22917 14.5972C7.38657 15.7546 8.78125 16.3333 10.4132 16.3333Z" fill="#1C2439"/>
</svg>
