<svg width="86" height="101" viewBox="0 0 86 101" fill="none" xmlns="http://www.w3.org/2000/svg">
<path fill-rule="evenodd" clip-rule="evenodd" d="M11.604 79.1705C11.604 82.4857 12.7234 85.6651 14.716 88.0093C16.7086 90.3535 19.4111 91.6705 22.229 91.6705H64.729C67.5469 91.6705 70.2494 90.3535 72.242 88.0093C74.2346 85.6651 75.354 82.4857 75.354 79.1705V36.7872C75.3525 33.4737 74.2327 30.2965 72.2409 27.9538L58.6834 11.9955C56.6907 9.65265 53.9887 8.33676 51.1715 8.33716H22.229C19.4111 8.33716 16.7086 9.65412 14.716 11.9983C12.7234 14.3425 11.604 17.522 11.604 20.8372V79.1705ZM47.0207 50.0038C47.0207 48.8988 46.6475 47.839 45.9833 47.0576C45.3191 46.2761 44.4183 45.8372 43.479 45.8372C42.5397 45.8372 41.6389 46.2761 40.9747 47.0576C40.3105 47.839 39.9373 48.8988 39.9373 50.0038V64.9455L35.358 59.558C34.69 58.799 33.7954 58.379 32.8667 58.3885C31.9381 58.398 31.0498 58.8362 30.3932 59.6088C29.7365 60.3813 29.3641 61.4263 29.356 62.5188C29.3479 63.6113 29.7049 64.6638 30.35 65.4497L40.975 77.9497C41.6392 78.7308 42.5399 79.1696 43.479 79.1696C44.4181 79.1696 45.3188 78.7308 45.983 77.9497L56.608 65.4497C57.2531 64.6638 57.6101 63.6113 57.602 62.5188C57.5939 61.4263 57.2215 60.3813 56.5648 59.6088C55.9082 58.8362 55.0199 58.398 54.0913 58.3885C53.1626 58.379 52.268 58.799 51.6 59.558L47.0207 64.9455V50.0038Z" fill="white"/>
</svg>
