<svg width="20" height="20" viewBox="0 0 20 20" fill="none" xmlns="http://www.w3.org/2000/svg">
<path d="M19.575 10.225C19.575 9.56665 19.5167 8.94165 19.4167 8.33331H10V12.0916H15.3917C15.15 13.325 14.4417 14.3666 13.3917 15.075V17.575H16.6083C18.4917 15.8333 19.575 13.2666 19.575 10.225Z" fill="#4285F4"/>
<path d="M10 20C12.7 20 14.9584 19.1 16.6084 17.575L13.3917 15.075C12.4917 15.675 11.35 16.0417 10 16.0417C7.3917 16.0417 5.18337 14.2833 4.3917 11.9083H1.07504V14.4833C2.7167 17.75 6.0917 20 10 20Z" fill="#34A853"/>
<path d="M4.39167 11.9083C4.18333 11.3083 4.075 10.6667 4.075 9.99999C4.075 9.33333 4.19167 8.69166 4.39167 8.09166V5.51666H1.075C0.391666 6.86666 0 8.38333 0 9.99999C0 11.6167 0.391666 13.1333 1.075 14.4833L4.39167 11.9083Z" fill="#FBBC05"/>
<path d="M10 3.95833C11.475 3.95833 12.7917 4.46667 13.8334 5.45834L16.6834 2.60833C14.9584 0.991668 12.7 0 10 0C6.0917 0 2.7167 2.25 1.07504 5.51667L4.3917 8.09167C5.18337 5.71667 7.3917 3.95833 10 3.95833Z" fill="#EA4335"/>
</svg>
