<svg width="20" height="20" viewBox="0 0 20 20" fill="none" xmlns="http://www.w3.org/2000/svg">
<path d="M5.83317 1.6665C7.3165 1.6665 8.05817 3.4665 7.0165 4.5165C5.9665 5.55817 4.1665 4.8165 4.1665 3.33317C4.1665 2.89114 4.3421 2.46722 4.65466 2.15466C4.96722 1.8421 5.39114 1.6665 5.83317 1.6665ZM4.58317 5.83317H7.08317C7.5252 5.83317 7.94912 6.00877 8.26168 6.32133C8.57424 6.63389 8.74984 7.05781 8.74984 7.49984V12.0832H7.49984V18.3332H4.1665V12.0832H2.9165V7.49984C2.9165 7.05781 3.0921 6.63389 3.40466 6.32133C3.71722 6.00877 4.14114 5.83317 4.58317 5.83317ZM17.4998 6.6665H12.4998V8.33317H17.4998V6.6665ZM17.4998 9.1665H14.9998V10.8332H17.4998V9.1665ZM17.4998 1.6665H12.4998V3.33317H17.4998V1.6665ZM17.4998 4.1665H14.9998V5.83317H17.4998V4.1665ZM17.4998 11.6665H12.4998V13.3332H17.4998V11.6665ZM17.4998 16.6665H12.4998V18.3332H17.4998V16.6665ZM17.4998 14.1665H14.9998V15.8332H17.4998" fill="#1C2439"/>
</svg>
