<svg width="20" height="20" viewBox="0 0 20 20" fill="none" xmlns="http://www.w3.org/2000/svg">
<path d="M15.8333 2.5H4.16667C3.72464 2.5 3.30072 2.67559 2.98816 2.98816C2.67559 3.30072 2.5 3.72464 2.5 4.16667V15.8333C2.5 16.2754 2.67559 16.6993 2.98816 17.0118C3.30072 17.3244 3.72464 17.5 4.16667 17.5H15.8333C16.2754 17.5 16.6993 17.3244 17.0118 17.0118C17.3244 16.6993 17.5 16.2754 17.5 15.8333V4.16667C17.5 3.72464 17.3244 3.30072 17.0118 2.98816C16.6993 2.67559 16.2754 2.5 15.8333 2.5ZM5 5H9.16667V9.16667H5V5ZM8.75 15.8333C8.19747 15.8333 7.66756 15.6138 7.27686 15.2231C6.88616 14.8324 6.66667 14.3025 6.66667 13.75C6.66667 13.1975 6.88616 12.6676 7.27686 12.2769C7.66756 11.8862 8.19747 11.6667 8.75 11.6667C9.30253 11.6667 9.83244 11.8862 10.2231 12.2769C10.6138 12.6676 10.8333 13.1975 10.8333 13.75C10.8333 14.3025 10.6138 14.8324 10.2231 15.2231C9.83244 15.6138 9.30253 15.8333 8.75 15.8333ZM11.25 10.8333L13.75 6.66667L16.25 10.8333H11.25Z" fill="#1C2439"/>
</svg>
