<svg width="30" height="30" viewBox="0 0 30 30" fill="none" xmlns="http://www.w3.org/2000/svg">
  <path d="M26.698 22.6171H24.3543V20.2734C24.3543 20.1445 24.2488 20.039 24.1199 20.039H22.7137C22.5847 20.039 22.4793 20.1445 22.4793 20.2734V22.6171H20.1355C20.0066 22.6171 19.9012 22.7226 19.9012 22.8515V24.2578C19.9012 24.3867 20.0066 24.4921 20.1355 24.4921H22.4793V26.8359C22.4793 26.9648 22.5847 27.0703 22.7137 27.0703H24.1199C24.2488 27.0703 24.3543 26.9648 24.3543 26.8359V24.4921H26.698C26.8269 24.4921 26.9324 24.3867 26.9324 24.2578V22.8515C26.9324 22.7226 26.8269 22.6171 26.698 22.6171ZM11.5076 14.6015C11.4812 14.3466 11.4666 14.0888 11.4666 13.8281C11.4666 13.3623 11.5105 12.9082 11.5926 12.4658C11.6131 12.3603 11.5574 12.2519 11.4607 12.208C11.0623 12.0293 10.6961 11.7832 10.3797 11.4726C10.0068 11.1111 9.71345 10.6759 9.51824 10.1946C9.32302 9.71341 9.23026 9.19677 9.24588 8.67769C9.27224 7.73726 9.65017 6.84371 10.3094 6.16988C11.033 5.42867 12.0056 5.02437 13.0398 5.03609C13.9744 5.04488 14.8767 5.40523 15.5594 6.0439C15.7908 6.2607 15.99 6.50093 16.157 6.75874C16.2156 6.84956 16.3299 6.88765 16.4295 6.85249C16.9451 6.67378 17.49 6.54781 18.0496 6.48921C18.2136 6.47163 18.3074 6.29585 18.2342 6.14937C17.282 4.26558 15.3367 2.9648 13.0867 2.92964C9.8406 2.87984 7.13357 5.54292 7.13357 8.78902C7.13357 10.6289 7.98025 12.2695 9.3074 13.3447C8.37576 13.7753 7.51736 14.3701 6.77322 15.1142C5.16775 16.7168 4.25955 18.832 4.20096 21.0908C4.20017 21.122 4.20566 21.1532 4.21709 21.1823C4.22851 21.2114 4.24565 21.2379 4.2675 21.2603C4.28934 21.2827 4.31544 21.3005 4.34426 21.3126C4.37309 21.3248 4.40405 21.331 4.43533 21.331H6.07888C6.20486 21.331 6.31033 21.2314 6.31326 21.1054C6.36892 19.4062 7.0574 17.8154 8.26736 16.6084C9.12869 15.747 10.1834 15.1494 11.3347 14.8593C11.4461 14.8271 11.5222 14.7187 11.5076 14.6015ZM24.7058 13.8281C24.7058 10.623 22.1306 8.01851 18.9373 7.96871C15.6912 7.9189 12.9871 10.582 12.9871 13.8281C12.9871 15.6679 13.8367 17.3085 15.1609 18.3837C14.2196 18.8201 13.3627 19.4191 12.6297 20.1533C11.0242 21.7558 10.116 23.871 10.0574 26.1269C10.0566 26.1582 10.0621 26.1893 10.0735 26.2184C10.085 26.2475 10.1021 26.274 10.1239 26.2964C10.1458 26.3188 10.1719 26.3366 10.2007 26.3488C10.2295 26.3609 10.2605 26.3672 10.2918 26.3671H11.9324C12.0584 26.3671 12.1638 26.2675 12.1668 26.1416C12.2224 24.4423 12.9109 22.8515 14.1209 21.6445C15.3836 20.3818 17.0594 19.6875 18.8465 19.6875C22.0808 19.6875 24.7058 17.0654 24.7058 13.8281ZM21.4978 16.4794C20.7888 17.1884 19.8484 17.5781 18.8465 17.5781C17.8445 17.5781 16.9041 17.1884 16.1951 16.4794C15.8413 16.1275 15.5618 15.7081 15.373 15.2461C15.1843 14.7842 15.0903 14.289 15.0965 13.79C15.1053 12.8291 15.489 11.9003 16.1599 11.2119C16.8631 10.4912 17.8035 10.0898 18.8084 10.0781C19.8015 10.0693 20.7654 10.456 21.4744 11.1503C22.201 11.8623 22.5994 12.8144 22.5994 13.8281C22.5965 14.83 22.2068 15.7705 21.4978 16.4794Z" fill="#A3A3A3" />
</svg>