<svg width="20" height="20" viewBox="0 0 20 20" fill="none" xmlns="http://www.w3.org/2000/svg">
<path fill-rule="evenodd" clip-rule="evenodd" d="M11.25 11.25H12.3812V12.4H11.25V11.25Z" fill="#1C2439"/>
<path fill-rule="evenodd" clip-rule="evenodd" d="M15.021 5.53C15.021 4.615 14.2748 3.77125 13.3523 3.77125H12.391C12.4885 3.31786 12.4836 2.84843 12.3765 2.39719C12.2695 1.94596 12.0632 1.52429 11.7725 1.16295C11.4818 0.801605 11.1142 0.509694 10.6963 0.308504C10.2785 0.107313 9.82101 0.00191675 9.35727 0C8.89345 0.00168757 8.43585 0.106933 8.0179 0.308052C7.59995 0.509171 7.23219 0.801087 6.94146 1.16249C6.65073 1.52389 6.44438 1.94565 6.33748 2.39699C6.23057 2.84832 6.2258 3.31784 6.32352 3.77125H5.39352C4.47477 3.77125 3.72852 4.615 3.72852 5.53L1.25977 17.0925C1.26042 17.311 1.30415 17.5273 1.38847 17.7289C1.47278 17.9305 1.59601 18.1135 1.75112 18.2675C1.90622 18.4214 2.09016 18.5433 2.29241 18.6261C2.49465 18.7089 2.71123 18.751 2.92977 18.75H15.821C16.2617 18.751 16.6848 18.577 16.9972 18.2662C17.3097 17.9554 17.4859 17.5332 17.4873 17.0925L15.021 5.53ZM7.49977 3.135C7.49977 2.095 8.34102 1.25 9.37477 1.25C10.4073 1.25 11.2498 2.095 11.2498 3.135C11.2478 3.34471 11.2106 3.55259 11.1398 3.75H7.61102C7.53916 3.55284 7.50153 3.34484 7.49977 3.135ZM8.80852 11.2563H7.55602V12.4412H8.80852V13.775H7.47727V12.5188H6.30352V13.775H4.95227V7.38875H6.30352V11.1775H7.47727V9.92125H8.80852V11.2563ZM13.8085 16.2787H12.5585V17.5575H11.231V16.2975L11.311 16.2188L12.426 16.1975L12.441 13.7762H9.98227L9.97227 9.94L13.8098 9.95625V16.2787H13.8085Z" fill="#1C2439"/>
</svg>
