<svg width="227" height="432" viewBox="0 0 227 432" fill="none" xmlns="http://www.w3.org/2000/svg">
<path d="M17.4 72C12.0667 72 8.03333 70.5 5.3 67.5C2.56667 64.4333 1.2 60.0667 1.2 54.4V50.4H11.6V55.2C11.6 59.7333 13.5 62 17.3 62C19.1667 62 20.5667 61.4667 21.5 60.4C22.5 59.2667 23 57.4667 23 55C23 52.0667 22.3333 49.5 21 47.3C19.6667 45.0333 17.2 42.3333 13.6 39.2C9.06667 35.2 5.9 31.6 4.1 28.4C2.3 25.1333 1.4 21.4667 1.4 17.4C1.4 11.8667 2.8 7.6 5.6 4.6C8.4 1.53333 12.4667 -3.8147e-06 17.8 -3.8147e-06C23.0667 -3.8147e-06 27.0333 1.53333 29.7 4.6C32.4333 7.6 33.8 11.9333 33.8 17.6V20.5H23.4V16.9C23.4 14.5 22.9333 12.7667 22 11.7C21.0667 10.5667 19.7 10 17.9 10C14.2333 10 12.4 12.2333 12.4 16.7C12.4 19.2333 13.0667 21.6 14.4 23.8C15.8 26 18.3 28.6667 21.9 31.8C26.5 35.8 29.6667 39.4333 31.4 42.7C33.1333 45.9667 34 49.8 34 54.2C34 59.9333 32.5667 64.3333 29.7 67.4C26.9 70.4667 22.8 72 17.4 72ZM40.307 0.999995H70.307V11H51.307V29.5H66.407V39.5H51.307V61H70.307V71H40.307V0.999995ZM92.6352 72C87.3018 72 83.2352 70.5 80.4352 67.5C77.6352 64.4333 76.2352 60.0667 76.2352 54.4V0.999995H87.2352V55.2C87.2352 57.6 87.7018 59.3333 88.6352 60.4C89.6352 61.4667 91.0352 62 92.8352 62C94.6352 62 96.0018 61.4667 96.9352 60.4C97.9352 59.3333 98.4352 57.6 98.4352 55.2V0.999995H109.035V54.4C109.035 60.0667 107.635 64.4333 104.835 67.5C102.035 70.5 97.9685 72 92.6352 72ZM11.7 101H0.2V91H34.2V101H22.7V161H11.7V101ZM39.5258 91H55.8258C61.4924 91 65.6258 92.3333 68.2258 95C70.8258 97.6 72.1258 101.633 72.1258 107.1V111.4C72.1258 118.667 69.7258 123.267 64.9258 125.2V125.4C67.5924 126.2 69.4591 127.833 70.5258 130.3C71.6591 132.767 72.2258 136.067 72.2258 140.2V152.5C72.2258 154.5 72.2925 156.133 72.4258 157.4C72.5591 158.6 72.8924 159.8 73.4258 161H62.2258C61.8258 159.867 61.5591 158.8 61.4258 157.8C61.2924 156.8 61.2258 155 61.2258 152.4V139.6C61.2258 136.4 60.6924 134.167 59.6258 132.9C58.6258 131.633 56.8591 131 54.3258 131H50.5258V161H39.5258V91ZM54.5258 121C56.7258 121 58.3591 120.433 59.4258 119.3C60.5591 118.167 61.1258 116.267 61.1258 113.6V108.2C61.1258 105.667 60.6591 103.833 59.7258 102.7C58.8591 101.567 57.4591 101 55.5258 101H50.5258V121H54.5258ZM79.8578 91H109.858V101H90.8578V119.5H105.958V129.5H90.8578V151H109.858V161H79.8578V91ZM116.186 91H127.186V161H116.186V91ZM135.424 91H149.224L159.924 132.9H160.124V91H169.924V161H158.624L145.424 109.9H145.224V161H135.424V91ZM194 162C188.6 162 184.467 160.467 181.6 157.4C178.733 154.333 177.3 150 177.3 144.4V107.6C177.3 102 178.733 97.6667 181.6 94.6C184.467 91.5333 188.6 90 194 90C199.4 90 203.533 91.5333 206.4 94.6C209.267 97.6667 210.7 102 210.7 107.6V144.4C210.7 150 209.267 154.333 206.4 157.4C203.533 160.467 199.4 162 194 162ZM194 152C197.8 152 199.7 149.7 199.7 145.1V106.9C199.7 102.3 197.8 100 194 100C190.2 100 188.3 102.3 188.3 106.9V145.1C188.3 149.7 190.2 152 194 152ZM3.1 181H16.9L27.6 222.9H27.8V181H37.6V251H26.3L13.1 199.9H12.9V251H3.1V181ZM54.2758 181H69.1758L80.5758 251H69.5758L67.5758 237.1V237.3H55.0758L53.0758 251H42.8758L54.2758 181ZM66.2758 227.8L61.3758 193.2H61.1758L56.3758 227.8H66.2758ZM3.1 271H19.3C24.7667 271 28.8667 272.467 31.6 275.4C34.3333 278.333 35.7 282.633 35.7 288.3V295.2C35.7 300.867 34.3333 305.167 31.6 308.1C28.8667 311.033 24.7667 312.5 19.3 312.5H14.1V341H3.1V271ZM19.3 302.5C21.1 302.5 22.4333 302 23.3 301C24.2333 300 24.7 298.3 24.7 295.9V287.6C24.7 285.2 24.2333 283.5 23.3 282.5C22.4333 281.5 21.1 281 19.3 281H14.1V302.5H19.3ZM46.6586 271H61.5586L72.9586 341H61.9586L59.9586 327.1V327.3H47.4586L45.4586 341H35.2586L46.6586 271ZM58.6586 317.8L53.7586 283.2H53.5586L48.7586 317.8H58.6586ZM78.2953 271H89.2953V331H107.395V341H78.2953V271ZM112.67 271H128.37L135.37 321.1H135.57L142.57 271H158.27V341H147.87V288H147.67L139.67 341H130.47L122.47 288H122.27V341H112.67V271ZM174.979 271H189.879L201.279 341H190.279L188.279 327.1V327.3H175.779L173.779 341H163.579L174.979 271ZM186.979 317.8L182.079 283.2H181.879L177.079 317.8H186.979ZM3.1 361H19.9C25.3667 361 29.4667 362.467 32.2 365.4C34.9333 368.333 36.3 372.633 36.3 378.3V413.7C36.3 419.367 34.9333 423.667 32.2 426.6C29.4667 429.533 25.3667 431 19.9 431H3.1V361ZM19.7 421C21.5 421 22.8667 420.467 23.8 419.4C24.8 418.333 25.3 416.6 25.3 414.2V377.8C25.3 375.4 24.8 373.667 23.8 372.6C22.8667 371.533 21.5 371 19.7 371H14.1V421H19.7ZM52.0297 361H66.9297L78.3297 431H67.3297L65.3297 417.1V417.3H52.8297L50.8297 431H40.6297L52.0297 361ZM64.0297 407.8L59.1297 373.2H58.9297L54.1297 407.8H64.0297ZM99.682 361H115.382L122.382 411.1H122.582L129.582 361H145.282V431H134.882V378H134.682L126.682 431H117.482L109.482 378H109.282V431H99.682V361ZM161.991 361H176.891L188.291 431H177.291L175.291 417.1V417.3H162.791L160.791 431H150.591L161.991 361ZM173.991 407.8L169.091 373.2H168.891L164.091 407.8H173.991ZM155.591 353.5C156.857 350.633 158.224 348.533 159.691 347.2C161.157 345.8 162.824 345.1 164.691 345.1C165.891 345.1 166.924 345.267 167.791 345.6C168.724 345.933 169.691 346.4 170.691 347C171.291 347.333 171.857 347.633 172.391 347.9C172.991 348.167 173.557 348.3 174.091 348.3C174.891 348.3 175.591 348 176.191 347.4C176.791 346.8 177.424 345.8 178.091 344.4L183.391 347.6C182.124 350.467 180.757 352.6 179.291 354C177.824 355.333 176.157 356 174.291 356C173.091 356 172.024 355.833 171.091 355.5C170.224 355.167 169.291 354.7 168.291 354.1C167.691 353.767 167.091 353.467 166.491 353.2C165.957 352.933 165.424 352.8 164.891 352.8C164.091 352.8 163.391 353.1 162.791 353.7C162.191 354.3 161.557 355.3 160.891 356.7L155.591 353.5ZM209.332 432C203.932 432 199.799 430.467 196.932 427.4C194.065 424.333 192.632 420 192.632 414.4V377.6C192.632 372 194.065 367.667 196.932 364.6C199.799 361.533 203.932 360 209.332 360C214.732 360 218.865 361.533 221.732 364.6C224.599 367.667 226.032 372 226.032 377.6V414.4C226.032 420 224.599 424.333 221.732 427.4C218.865 430.467 214.732 432 209.332 432ZM209.332 422C213.132 422 215.032 419.7 215.032 415.1V376.9C215.032 372.3 213.132 370 209.332 370C205.532 370 203.632 372.3 203.632 376.9V415.1C203.632 419.7 205.532 422 209.332 422Z" fill="url(#paint0_linear)"/>
<defs>
<linearGradient id="paint0_linear" x1="118" y1="-4" x2="118" y2="445" gradientUnits="userSpaceOnUse">
<stop stop-color="white"/>
<stop offset="1" stop-color="#F2F2F2"/>
</linearGradient>
</defs>
</svg>
