<svg width="280" height="170" viewBox="0 0 280 170" fill="none" xmlns="http://www.w3.org/2000/svg">
<path d="M255.39 169.497L247.392 146.898C247.392 146.898 256.189 155.135 256.189 161.894L254.61 146.265C254.61 146.265 259.121 151.967 258.67 160.627C258.219 169.286 255.39 169.497 255.39 169.497Z" fill="#F2F2F2"/>
<path d="M83.653 148.92L75.8481 126.864C75.8481 126.864 84.433 134.903 84.433 141.499L82.8921 126.246C82.8921 126.246 87.2946 131.811 86.8543 140.262C86.4141 148.714 83.653 148.92 83.653 148.92Z" fill="#F2F2F2"/>
<path d="M205.472 159.097C205.486 173.606 174.756 169.143 137.135 169.174C99.5141 169.204 69.2489 173.716 69.2355 159.208C69.2221 144.699 99.9409 141.518 137.562 141.488C175.182 141.458 205.459 144.589 205.472 159.097Z" fill="#F2F2F2"/>
<path d="M280 169.165H0V169.829H280V169.165Z" fill="#D3D3D3"/>
<path d="M179.106 139.504H174.188L171.847 121.739H179.106V139.504Z" fill="#E5E5E5"/>
<path d="M170.129 138.188H180.161V143.78H164.703V143.269C164.703 141.921 165.274 140.629 166.292 139.676C167.309 138.723 168.69 138.187 170.129 138.188Z" fill="#D3D3D3"/>
<path d="M215.258 165.723H210.34L207.999 147.958H215.258V165.723Z" fill="#E5E5E5"/>
<path d="M206.281 164.407H216.312V170H200.855V169.488C200.855 168.141 201.426 166.848 202.444 165.895C203.461 164.943 204.841 164.407 206.281 164.407Z" fill="#D3D3D3"/>
<path d="M237.945 112.947C238.285 112.561 238.531 112.11 238.664 111.625C238.798 111.141 238.816 110.634 238.719 110.142C238.621 109.65 238.409 109.184 238.098 108.777C237.787 108.37 237.384 108.032 236.919 107.786L225.495 64.2104L218.191 67.1532L231.779 109.287C231.39 110.047 231.312 110.914 231.56 111.724C231.809 112.534 232.366 113.231 233.126 113.682C233.886 114.133 234.796 114.308 235.684 114.172C236.573 114.037 237.377 113.601 237.945 112.947Z" fill="#E5E5E5"/>
<path d="M229.036 24.8803C228.628 24.4812 228.132 24.1706 227.582 23.9705C227.032 23.7704 226.442 23.6856 225.854 23.7221C225.266 23.7586 224.693 23.9154 224.176 24.1816C223.659 24.4478 223.211 24.8169 222.863 25.2628L205.182 27.1636L207.872 33.5497L223.952 30.7316C224.79 31.2294 225.795 31.4217 226.775 31.2722C227.755 31.1227 228.642 30.6418 229.269 29.9205C229.896 29.1993 230.218 28.2878 230.175 27.3589C230.132 26.4299 229.727 25.548 229.036 24.8803Z" fill="#E5E5E5"/>
<path d="M199.899 108.428L207.614 162.651L217.217 160.8C217.217 160.8 215.805 121.311 220.606 116.55C225.407 111.789 214.43 103.45 214.43 103.45L199.899 108.428Z" fill="#D3D3D3"/>
<path d="M203.089 93.4931L199.544 98.4715C199.544 98.4715 172.253 87.8511 172.253 104.778C172.253 121.704 170.691 133.191 170.127 133.984C169.562 134.778 176.661 136.837 180.051 136.308C180.051 136.308 184.232 109.02 183.949 107.433C183.949 107.433 210.721 119.724 215.805 118.666C220.888 117.608 222.089 113.863 222.937 111.747C223.784 109.632 222.582 92.8293 222.582 92.8293L205.637 87.9868L203.089 93.4931Z" fill="#D3D3D3"/>
<path d="M203.567 63.602L202.557 62.4668C202.557 62.4668 191.242 38.6273 195.687 32.1944C200.132 25.7615 219.529 24.8155 220.135 25.1939C220.741 25.5723 218.687 30.4852 220.101 32.7557C220.101 32.7557 205.076 35.8062 204.065 36.1846C203.055 36.563 211.851 50.547 211.851 50.547L210.841 59.0611L203.567 63.602Z" fill="#F2F2F2"/>
<path d="M223.368 51.8718C223.368 51.8718 212.861 53.007 212.457 53.007C212.053 53.007 211.851 50.5474 211.851 50.5474L202.557 62.4671C202.557 62.4671 197.978 97.0477 199.19 96.4801C200.402 95.9125 222.761 99.1724 222.963 97.6587C223.165 96.1451 222.761 88.577 223.368 88.1986C223.974 87.8202 233.874 64.3591 233.874 64.3591C233.874 64.3591 232.864 59.4399 229.429 57.7371C225.994 56.0342 223.368 51.8718 223.368 51.8718Z" fill="#F2F2F2"/>
<path d="M230.641 61.1426L233.874 64.359C233.874 64.359 238.677 101.319 236.051 102.454C233.424 103.589 228.253 103.45 228.253 103.45L223.165 85.9281L230.641 61.1426Z" fill="#F2F2F2"/>
<path d="M213.271 49.5309C218.407 49.5309 222.571 45.6319 222.571 40.8223C222.571 36.0127 218.407 32.1138 213.271 32.1138C208.135 32.1138 203.971 36.0127 203.971 40.8223C203.971 45.6319 208.135 49.5309 213.271 49.5309Z" fill="#E5E5E5"/>
<path d="M211.089 42.1812C210.963 40.3742 208.529 40.3123 206.595 40.2952C204.662 40.2781 202.35 40.3427 201.256 38.8496C200.533 37.8629 200.671 36.493 201.268 35.4351C201.865 34.3772 202.848 33.5636 203.815 32.7808C206.31 30.76 208.882 28.7551 211.879 27.4616C214.875 26.1682 218.386 25.6455 221.494 26.6838C225.311 27.9593 230.471 34.5252 230.917 38.2975C231.362 42.0698 229.752 45.9153 227.039 48.7343C224.325 51.5532 218.113 50.4158 214.204 51.4186C216.581 48.2691 215.015 42.5462 211.208 41.0754L211.089 42.1812Z" fill="#D3D3D3"/>
<path d="M128.205 154.827C140.535 154.827 150.53 145.468 150.53 133.922C150.53 122.376 140.535 113.016 128.205 113.016C115.875 113.016 105.88 122.376 105.88 133.922C105.88 145.468 115.875 154.827 128.205 154.827Z" fill="#FFB9B9"/>
<path d="M113.296 111.53C110.202 111.531 107.174 110.691 104.579 109.113C101.984 107.535 99.9326 105.287 98.6737 102.64L63.2476 27.9331C62.0741 25.4584 61.4535 22.7851 61.4239 20.0776C61.3942 17.37 61.9562 14.6854 63.0753 12.1887C64.1944 9.69205 65.847 7.43606 67.9314 5.55943C70.0158 3.68281 72.4881 2.2252 75.1962 1.27619C77.9043 0.32719 80.7911 -0.0931598 83.6791 0.0409879C86.567 0.175136 89.3952 0.860945 91.9897 2.05626C94.5843 3.25157 96.8903 4.93114 98.7662 6.99172C100.642 9.05231 102.048 11.4504 102.898 14.0385L128.551 92.1709C129.285 94.4073 129.449 96.7739 129.03 99.0804C128.61 101.387 127.619 103.569 126.135 105.452C124.652 107.335 122.717 108.865 120.488 109.921C118.258 110.977 115.795 111.528 113.296 111.53H113.296Z" fill="#FFB9B9"/>
</svg>
