<svg width="24" height="24" viewBox="0 0 24 24" fill="none" xmlns="http://www.w3.org/2000/svg">
<path d="M1 12C1 12 5.188 6 12 6C12.947 6 13.84 6.12 14.678 6.322L8.36 12.64C8.12406 12.1254 8.0013 11.5661 8 11C8 10.063 8.335 9.213 8.875 8.53C6.483 9.344 4.66 10.917 3.62 12C4.50686 12.9233 5.50834 13.7292 6.6 14.398L5.15 15.85C2.498 14.13 1 12 1 12ZM23 12C23 12 18.812 18 12 18C11.054 18 10.164 17.876 9.324 17.677L5 22L3.5 20.5L20.5 3.5L22 5L18.853 8.147C21.5 9.87 23 12 23 12ZM20.385 12.006C19.4975 11.0791 18.4934 10.2714 17.398 9.603L16 11C16 13.21 14.21 15 12 15L11.053 15.947C11.363 15.977 11.677 16 12 16C15.978 16 18.943 13.522 20.385 12.006Z" fill="black"/>
</svg>
