<svg width="31" height="30" viewBox="0 0 31 30" fill="none" xmlns="http://www.w3.org/2000/svg">
<g clip-path="url(#clip0)">
<path d="M13.6902 26.25C13.6902 26.25 11.8152 26.25 11.8152 24.375C11.8152 22.5 13.6902 16.875 21.1902 16.875C28.6902 16.875 30.5652 22.5 30.5652 24.375C30.5652 26.25 28.6902 26.25 28.6902 26.25H13.6902ZM21.1902 15C22.682 15 24.1128 14.4074 25.1677 13.3525C26.2226 12.2976 26.8152 10.8668 26.8152 9.375C26.8152 7.88316 26.2226 6.45242 25.1677 5.39752C24.1128 4.34263 22.682 3.75 21.1902 3.75C19.6983 3.75 18.2676 4.34263 17.2127 5.39752C16.1578 6.45242 15.5652 7.88316 15.5652 9.375C15.5652 10.8668 16.1578 12.2976 17.2127 13.3525C18.2676 14.4074 19.6983 15 21.1902 15Z" fill="#A3A3A3"/>
<path fill-rule="evenodd" clip-rule="evenodd" d="M10.3452 26.2498C10.0672 25.6645 9.92861 25.0227 9.94019 24.3748C9.94019 21.8342 11.2152 19.2186 13.5702 17.3998C12.3947 17.0376 11.1701 16.8605 9.94019 16.8748C2.44019 16.8748 0.565186 22.4998 0.565186 24.3748C0.565186 26.2498 2.44019 26.2498 2.44019 26.2498H10.3452Z" fill="#A3A3A3"/>
<path d="M9.00269 15C10.2459 15 11.4382 14.5061 12.3172 13.6271C13.1963 12.748 13.6902 11.5557 13.6902 10.3125C13.6902 9.0693 13.1963 7.87701 12.3172 6.99794C11.4382 6.11886 10.2459 5.625 9.00269 5.625C7.75948 5.625 6.5672 6.11886 5.68812 6.99794C4.80905 7.87701 4.31519 9.0693 4.31519 10.3125C4.31519 11.5557 4.80905 12.748 5.68812 13.6271C6.5672 14.5061 7.75948 15 9.00269 15Z" fill="#A3A3A3"/>
</g>
<defs>
<clipPath id="clip0">
<rect width="30" height="30" fill="white" transform="translate(0.565186)"/>
</clipPath>
</defs>
</svg>
