<svg width="20" height="20" viewBox="0 0 20 20" fill="none" xmlns="http://www.w3.org/2000/svg">
<rect width="20" height="20" rx="10" fill="#FF6859"/>
<path d="M13.105 10.5647L8.9935 14.1617C8.509 14.5862 7.75 14.2412 7.75 13.597V6.40299C7.74988 6.2588 7.79132 6.11764 7.86936 5.9964C7.9474 5.87517 8.05873 5.77899 8.19002 5.7194C8.32131 5.65981 8.467 5.63932 8.60963 5.6604C8.75227 5.68148 8.8858 5.74322 8.99425 5.83824L13.1043 9.43524C13.1848 9.50563 13.2494 9.59245 13.2936 9.68986C13.3378 9.78726 13.3607 9.89301 13.3607 9.99999C13.3607 10.107 13.3378 10.2127 13.2936 10.3101C13.2494 10.4075 13.1848 10.4943 13.1043 10.5647H13.105Z" fill="white"/>
</svg>
