<svg width="28" height="28" viewBox="0 0 28 28" fill="none" xmlns="http://www.w3.org/2000/svg">
  <path d="M11.9671 4.08325C11.525 4.08327 11.0909 4.20151 10.7099 4.42572C10.3289 4.64993 10.0147 4.97195 9.8 5.35842L9.04983 6.70825H6.85417C5.96459 6.70825 5.11144 7.06164 4.48241 7.69066C3.85338 8.31969 3.5 9.17284 3.5 10.0624V19.9791C3.5 20.8687 3.85338 21.7218 4.48241 22.3508C5.11144 22.9799 5.96459 23.3333 6.85417 23.3333H13.4143C13.2184 22.8633 13.0706 22.3747 12.9733 21.8749H6.85417C6.35136 21.8749 5.86915 21.6752 5.51361 21.3196C5.15807 20.9641 4.95833 20.4819 4.95833 19.9791V10.0624C4.95833 9.55961 5.15807 9.0774 5.51361 8.72186C5.86915 8.36632 6.35136 8.16658 6.85417 8.16658H9.90792L11.0746 6.06658C11.163 5.90744 11.2924 5.77484 11.4493 5.68253C11.6063 5.59022 11.785 5.54155 11.9671 5.54159H16.0329C16.215 5.54155 16.3937 5.59022 16.5507 5.68253C16.7076 5.77484 16.837 5.90744 16.9254 6.06658L18.0921 8.16658H21.1458C21.6486 8.16658 22.1309 8.36632 22.4864 8.72186C22.8419 9.0774 23.0417 9.55961 23.0417 10.0624V13.2999C23.5562 13.4895 24.045 13.7339 24.5 14.0256V10.0624C24.5 9.17284 24.1466 8.31969 23.5176 7.69066C22.8886 7.06164 22.0354 6.70825 21.1458 6.70825H18.9502L18.2 5.35842C17.9853 4.97195 17.6711 4.64993 17.2901 4.42572C16.9091 4.20151 16.475 4.08327 16.0329 4.08325H11.9671Z" fill="#1c2439" />
  <path d="M13.9998 9.91651C14.9776 9.91649 15.9308 10.2235 16.7247 10.7942C17.5187 11.365 18.1134 12.1706 18.425 13.0974C17.9496 13.2263 17.4928 13.4008 17.06 13.6148C16.8896 13.0774 16.5806 12.5943 16.1641 12.2143C15.7476 11.8343 15.2383 11.5708 14.6875 11.4502C14.1368 11.3297 13.5639 11.3564 13.0268 11.5278C12.4896 11.6991 12.0071 12.0089 11.6278 12.4261C11.2485 12.8432 10.9859 13.353 10.8663 13.904C10.7467 14.4549 10.7745 15.0277 10.9467 15.5646C11.119 16.1014 11.4296 16.5834 11.8474 16.962C12.2653 17.3405 12.7755 17.6023 13.3266 17.7209C13.1551 18.1713 13.0251 18.6426 12.9416 19.1297C11.8247 18.8712 10.8419 18.2105 10.1809 17.2738C9.51987 16.337 9.22682 15.1897 9.35764 14.0507C9.48846 12.9117 10.034 11.8607 10.8902 11.0982C11.7464 10.3357 12.8533 9.91504 13.9998 9.91651Z" fill="#1c2439" />
  <path d="M26.8333 20.4167C26.8333 23.9604 23.9604 26.8333 20.4167 26.8333C16.8729 26.8333 14 23.9604 14 20.4167C14 16.8729 16.8729 14 20.4167 14C23.9604 14 26.8333 16.8729 26.8333 20.4167ZM21 16.9167C21 16.762 20.9385 16.6136 20.8291 16.5042C20.7197 16.3948 20.5714 16.3333 20.4167 16.3333C20.262 16.3333 20.1136 16.3948 20.0042 16.5042C19.8948 16.6136 19.8333 16.762 19.8333 16.9167V19.8333H16.9167C16.762 19.8333 16.6136 19.8948 16.5042 20.0042C16.3948 20.1136 16.3333 20.262 16.3333 20.4167C16.3333 20.5714 16.3948 20.7197 16.5042 20.8291C16.6136 20.9385 16.762 21 16.9167 21H19.8333V23.9167C19.8333 24.0714 19.8948 24.2197 20.0042 24.3291C20.1136 24.4385 20.262 24.5 20.4167 24.5C20.5714 24.5 20.7197 24.4385 20.8291 24.3291C20.9385 24.2197 21 24.0714 21 23.9167V21H23.9167C24.0714 21 24.2197 20.9385 24.3291 20.8291C24.4385 20.7197 24.5 20.5714 24.5 20.4167C24.5 20.262 24.4385 20.1136 24.3291 20.0042C24.2197 19.8948 24.0714 19.8333 23.9167 19.8333H21V16.9167Z" fill="#1c2439" />
</svg>