<svg width="30" height="30" viewBox="0 0 30 30" fill="none" xmlns="http://www.w3.org/2000/svg">
  <path d="M6.19022 28.125H24.9402V23.4375C24.9382 21.6976 24.2462 20.0296 23.0159 18.7993C21.7856 17.569 20.1176 16.877 18.3777 16.875H12.7527C11.0128 16.877 9.3448 17.569 8.11452 18.7993C6.88424 20.0296 6.1922 21.6976 6.19022 23.4375V28.125Z" fill="#090A0A" />
  <path d="M9.00272 8.4375C9.00272 9.73544 9.3876 11.0042 10.1087 12.0834C10.8298 13.1626 11.8547 14.0038 13.0539 14.5005C14.253 14.9972 15.5725 15.1271 16.8455 14.8739C18.1185 14.6207 19.2878 13.9957 20.2056 13.0779C21.1234 12.1601 21.7484 10.9908 22.0016 9.71778C22.2548 8.44478 22.1249 7.12528 21.6282 5.92614C21.1315 4.727 20.2903 3.70208 19.2111 2.98098C18.1319 2.25988 16.8632 1.875 15.5652 1.875C13.8247 1.875 12.1555 2.5664 10.9248 3.79711C9.69412 5.02782 9.00272 6.69702 9.00272 8.4375Z" fill="#090A0A" />
</svg>