<svg width="50" height="50" viewBox="0 0 50 50" fill="none" xmlns="http://www.w3.org/2000/svg">
  <g opacity="0.5">
    <path opacity="0.5" d="M25 50C38.8071 50 50 38.8071 50 25C50 11.1929 38.8071 0 25 0C11.1929 0 0 11.1929 0 25C0 38.8071 11.1929 50 25 50Z" fill="url(#paint0_linear)" />
  </g>
  <path d="M25.0487 49.3132C38.5646 49.3132 49.5215 38.3564 49.5215 24.8405C49.5215 11.3245 38.5646 0.367676 25.0487 0.367676C11.5328 0.367676 0.575928 11.3245 0.575928 24.8405C0.575928 38.3564 11.5328 49.3132 25.0487 49.3132Z" fill="#f1f4f4" />
  <path d="M25.0717 49.4098C29.8537 49.4175 34.5322 48.0174 38.5237 45.384C37.6219 40.4556 34.1899 40.1748 34.1899 40.1748H15.2644C15.2644 40.1748 12.0259 40.4406 11.0144 44.9742C15.1297 47.869 20.0403 49.4184 25.0717 49.4098Z" fill="#FC6658" />
  <path d="M24.8116 36.1369C31.3354 36.1369 36.6239 30.8483 36.6239 24.3245C36.6239 17.8008 31.3354 12.5122 24.8116 12.5122C18.2878 12.5122 12.9993 17.8008 12.9993 24.3245C12.9993 30.8483 18.2878 36.1369 24.8116 36.1369Z" fill="#333333" />
  <path opacity="0.1" d="M20.9993 34.1633H28.568V40.2185C28.568 41.2219 28.1695 42.1843 27.4601 42.8939C26.7507 43.6036 25.7885 44.0025 24.7851 44.0029V44.0029C23.7814 44.0029 22.8188 43.6042 22.1091 42.8945C21.3994 42.1847 21.0007 41.2222 21.0007 40.2185V34.1633H20.9993Z" fill="black" />
  <path d="M21.2393 33.8826H28.331C28.3946 33.8826 28.4556 33.9079 28.5006 33.9529C28.5457 33.9979 28.5709 34.0589 28.5709 34.1225V39.9377C28.571 40.4349 28.4732 40.9272 28.2829 41.3865C28.0927 41.8458 27.8138 42.2631 27.4623 42.6147C27.1107 42.9662 26.6933 43.245 26.2339 43.4351C25.7746 43.6252 25.2823 43.723 24.7851 43.7228V43.7228C23.7814 43.7228 22.8189 43.3241 22.1092 42.6144C21.3994 41.9047 21.0007 40.9421 21.0007 39.9384V34.1225C21.0007 34.0591 21.0258 33.9983 21.0705 33.9534C21.1152 33.9084 21.1759 33.8829 21.2393 33.8826V33.8826Z" fill="#FDB797" />
  <path opacity="0.1" d="M21.0129 37.0215C23.4523 37.9329 26.1374 37.9403 28.5817 37.0423V36.1111H21.0129V37.0215Z" fill="black" />
  <path d="M24.8117 37.528C30.8034 37.528 35.6606 32.6708 35.6606 26.6792C35.6606 20.6875 30.8034 15.8303 24.8117 15.8303C18.8201 15.8303 13.9629 20.6875 13.9629 26.6792C13.9629 32.6708 18.8201 37.528 24.8117 37.528Z" fill="#FDB797" />
  <path opacity="0.1" d="M17.0837 16.8108C17.0837 16.8108 21.6561 26.0916 34.5537 20.7019L31.5508 15.9935L26.2277 14.083L17.0837 16.8108Z" fill="black" />
  <path d="M17.0837 16.6748C17.0837 16.6748 21.6561 25.9556 34.5537 20.5645L31.5508 15.856L26.2277 13.9456L17.0837 16.6748Z" fill="#333333" />
  <path d="M17.0436 16.046C17.3519 15.0916 17.8847 14.2252 18.5973 13.5195C20.7313 11.4099 24.2299 10.965 26.0243 8.55957C26.4541 9.22719 26.1217 10.2537 25.3796 10.5402C27.0988 10.5288 29.0909 10.3783 30.063 8.9643C30.3032 9.52356 30.3798 10.1395 30.2838 10.7406C30.1878 11.3416 29.9232 11.9031 29.5207 12.3597C31.0443 12.4314 32.6726 13.4629 32.7686 14.9851C32.8345 15.9994 32.1955 16.9593 31.3653 17.541C30.535 18.1226 29.5236 18.3898 28.5315 18.6083C25.6346 19.248 15.1532 21.9249 17.0436 16.046Z" fill="#333333" />
  <path d="M13.9585 28.5617C14.516 28.5617 14.9678 27.7144 14.9678 26.6692C14.9678 25.6239 14.516 24.7766 13.9585 24.7766C13.4011 24.7766 12.9492 25.6239 12.9492 26.6692C12.9492 27.7144 13.4011 28.5617 13.9585 28.5617Z" fill="#FDB797" />
  <path d="M35.659 28.5617C36.2164 28.5617 36.6683 27.7144 36.6683 26.6692C36.6683 25.6239 36.2164 24.7766 35.659 24.7766C35.1015 24.7766 34.6497 25.6239 34.6497 26.6692C34.6497 27.7144 35.1015 28.5617 35.659 28.5617Z" fill="#FDB797" />
  <defs>
    <linearGradient id="paint0_linear" x1="25" y1="50" x2="25" y2="0" gradientUnits="userSpaceOnUse">
      <stop stop-color="#808080" stop-opacity="0.25" />
      <stop offset="0.54" stop-color="#808080" stop-opacity="0.12" />
      <stop offset="1" stop-color="#808080" stop-opacity="0.1" />
    </linearGradient>
  </defs>
</svg>