<svg width="18" height="18" viewBox="0 0 18 18" fill="none" xmlns="http://www.w3.org/2000/svg">
<path fill-rule="evenodd" clip-rule="evenodd" d="M3.60001 1.7998C3.83871 1.7998 4.06763 1.89463 4.23641 2.06341C4.40519 2.23219 4.50001 2.46111 4.50001 2.6998V4.5907C5.24885 3.82685 6.1798 3.26618 7.20518 2.96151C8.23056 2.65684 9.31662 2.61819 10.3611 2.84921C11.4055 3.08023 12.374 3.57331 13.1752 4.282C13.9764 4.9907 14.5841 5.89169 14.9409 6.9001C14.9842 7.01239 15.0045 7.13221 15.0007 7.25249C14.9969 7.37276 14.969 7.49105 14.9186 7.60036C14.8683 7.70966 14.7966 7.80776 14.7076 7.88885C14.6187 7.96994 14.5145 8.03238 14.401 8.07247C14.2875 8.11256 14.1672 8.12948 14.0471 8.12225C13.9269 8.11501 13.8095 8.08376 13.7016 8.03034C13.5938 7.97692 13.4978 7.90242 13.4193 7.81124C13.3407 7.72006 13.2813 7.61406 13.2444 7.4995C12.9727 6.73164 12.4978 6.05187 11.8703 5.53262C11.2427 5.01338 10.4861 4.67412 9.68092 4.551C8.87577 4.42787 8.0523 4.5255 7.29825 4.83347C6.54421 5.14144 5.88785 5.64822 5.39911 6.2998H8.10001C8.33871 6.2998 8.56763 6.39463 8.73641 6.56341C8.90519 6.73219 9.00001 6.96111 9.00001 7.1998C9.00001 7.4385 8.90519 7.66742 8.73641 7.8362C8.56763 8.00498 8.33871 8.0998 8.10001 8.0998H3.60001C3.36132 8.0998 3.1324 8.00498 2.96362 7.8362C2.79483 7.66742 2.70001 7.4385 2.70001 7.1998V2.6998C2.70001 2.46111 2.79483 2.23219 2.96362 2.06341C3.1324 1.89463 3.36132 1.7998 3.60001 1.7998ZM3.60721 9.9511C3.71866 9.91174 3.83678 9.89471 3.95481 9.901C4.07285 9.90728 4.18848 9.93676 4.29513 9.98774C4.40177 10.0387 4.49732 10.1102 4.57633 10.1981C4.65534 10.286 4.71626 10.3886 4.75561 10.5001C5.02729 11.268 5.5022 11.9477 6.12975 12.467C6.75729 12.9862 7.51396 13.3255 8.31911 13.4486C9.12426 13.5717 9.94773 13.4741 10.7018 13.1661C11.4558 12.8582 12.1122 12.3514 12.6009 11.6998H9.90001C9.66132 11.6998 9.4324 11.605 9.26362 11.4362C9.09483 11.2674 9.00001 11.0385 9.00001 10.7998C9.00001 10.5611 9.09483 10.3322 9.26362 10.1634C9.4324 9.99463 9.66132 9.8998 9.90001 9.8998H14.4C14.6387 9.8998 14.8676 9.99463 15.0364 10.1634C15.2052 10.3322 15.3 10.5611 15.3 10.7998V15.2998C15.3 15.5385 15.2052 15.7674 15.0364 15.9362C14.8676 16.105 14.6387 16.1998 14.4 16.1998C14.1613 16.1998 13.9324 16.105 13.7636 15.9362C13.5948 15.7674 13.5 15.5385 13.5 15.2998V13.4089C12.7512 14.1728 11.8202 14.7334 10.7948 15.0381C9.76946 15.3428 8.6834 15.3814 7.63896 15.1504C6.59452 14.9194 5.62607 14.4263 4.82483 13.7176C4.02359 13.0089 3.41594 12.1079 3.05911 11.0995C3.01975 10.9881 3.00272 10.8699 3.00901 10.7519C3.01529 10.6339 3.04477 10.5182 3.09575 10.4116C3.14673 10.3049 3.21822 10.2094 3.30613 10.1304C3.39404 10.0514 3.49665 9.99045 3.60811 9.9511H3.60721Z" fill="#1C2439"/>
</svg>
