<svg width="222" height="460" viewBox="0 0 222 460" fill="none" xmlns="http://www.w3.org/2000/svg">
<path opacity="0.1" d="M111 460C172.304 460 222 451.046 222 440C222 428.954 172.304 420 111 420C49.6964 420 0 428.954 0 440C0 451.046 49.6964 460 111 460Z" fill="black"/>
<path d="M87.052 418.789L99.4805 411.874C97.7997 409.166 95.6511 406.742 93.1234 404.701L69.6753 411.604L88.052 401.412C83.503 399.061 78.3835 397.869 73.1974 397.951C68.0113 398.034 62.9373 399.389 58.475 401.883C54.0127 404.377 50.3157 407.924 47.748 412.175C45.1803 416.426 43.8304 421.235 43.8312 426.127C43.8312 441.692 57.2013 442.231 73.7013 442.231C90.2013 442.231 103.571 441.692 103.571 426.127C103.577 422.19 102.703 418.295 101.007 414.698L87.052 418.789Z" fill="#F2F2F2"/>
<path opacity="0.1" d="M90.2143 433.925C88.8916 432.673 87.4133 431.577 85.8117 430.66C83.552 429.245 81.2208 427.806 78.5585 427.322C76.2208 426.899 73.8117 427.255 71.4156 427.132C67.2814 426.892 63.3902 425.208 60.5 422.409C58.8052 420.756 57.4676 418.734 55.4286 417.454C53.2273 416.094 50.4351 415.8 47.8247 416.137C47.0682 416.245 46.3183 416.39 45.578 416.572C44.4061 419.639 43.8084 422.874 43.8117 426.134C43.8117 441.698 57.1819 442.237 73.6819 442.237C81.6883 442.237 88.9546 442.108 94.3182 440.197L93.4221 438.617C92.5674 436.931 91.4896 435.355 90.2143 433.925Z" fill="black"/>
<path d="M148.208 356.667C147.259 357.453 146.527 358.445 146.078 359.558C144.967 362.829 148.071 366.039 148.37 369.463C148.604 372.182 147.071 374.718 146.201 377.328C145.219 380.569 145.283 384.013 146.384 387.22C147.485 390.427 149.573 393.253 152.383 395.336C152.981 395.815 153.688 396.158 154.448 396.34C155.075 396.412 155.712 396.361 156.318 396.193C156.924 396.024 157.488 395.741 157.974 395.36C159.482 394.326 160.632 392.894 161.279 391.244C161.818 389.623 162.109 387.938 162.143 386.24L162.604 379.686C163.084 372.844 163.519 365.788 161.753 359.068C161.175 356.863 160.104 351.797 157.403 351.491C154.701 351.185 150 355.013 148.208 356.667Z" fill="#1B1B1B"/>
<path d="M193.507 328.515C190.263 339.26 187.912 350.227 186.474 361.316C186.266 362.878 186.052 364.519 185.052 365.781C183.059 368.311 179.065 368.152 175.753 367.741C174.958 367.702 174.183 367.492 173.487 367.129C172.24 366.332 171.968 364.74 171.818 363.325C169.55 342.466 168.035 321.553 167.273 300.584C167.24 299.782 194.994 299.708 197.37 301.809C199.747 303.91 197.903 311.769 197.37 314.445C196.5 319.211 194.929 323.854 193.507 328.515Z" fill="#F2F2F2"/>
<path opacity="0.05" d="M193.507 328.515C190.263 339.26 187.912 350.227 186.474 361.316C186.266 362.878 186.052 364.519 185.052 365.781C183.059 368.311 179.065 368.152 175.753 367.741C174.958 367.702 174.183 367.492 173.487 367.129C172.24 366.332 171.968 364.74 171.818 363.325C169.55 342.466 168.035 321.553 167.273 300.584C167.24 299.782 194.994 299.708 197.37 301.809C199.747 303.91 197.903 311.769 197.37 314.445C196.5 319.211 194.929 323.854 193.507 328.515Z" fill="black"/>
<path d="M135.714 297.601L146.955 320.92C150.695 328.675 154.461 336.515 156.247 344.864C156.963 348.351 157.421 351.882 157.617 355.43C157.888 358.471 157.788 361.531 157.318 364.55C156.909 366.792 156.156 368.973 155.825 371.227C154.526 380.212 159.922 388.665 163.617 397.026C166.809 404.207 168.841 411.799 169.643 419.549C169.981 422.85 170.169 426.354 172.169 429.08C175.825 428.045 179.396 427.15 183.208 427.555C183.89 422.281 180.357 417.423 179.059 412.241C176.675 402.747 181.942 392.769 180.149 383.159C179.175 377.952 176.156 373.052 176.403 367.772C176.864 358.143 178.779 348.416 176.831 338.983C174.636 328.319 168.325 318.623 166.929 307.843C165.857 299.561 167.578 290.404 162.688 283.446C152.007 282.852 140.961 288.799 135.714 297.601Z" fill="#F2F2F2"/>
<path d="M172.656 444.044C171.532 444.08 170.221 444.044 169.526 443.204C169.187 442.716 168.992 442.152 168.961 441.569C168.429 437.876 168.169 434.154 168.182 430.427C168.182 429.067 168.247 427.622 169.052 426.501C169.643 425.817 170.316 425.2 171.058 424.663C172.779 423.163 174.032 420.988 176.253 420.296C177.226 420.029 178.258 420.016 179.238 420.259C180.218 420.502 181.11 420.991 181.818 421.674C183.219 423.083 184.087 424.89 184.286 426.813C184.61 429.092 184.338 431.573 185.617 433.551C186.123 434.317 186.831 434.942 187.403 435.664C189.351 438.114 191.097 442.91 187.078 443.903C182.818 444.95 177.078 443.909 172.656 444.044Z" fill="#1B1B1B"/>
<path d="M182.403 159.599C184.675 155.459 183.318 150.13 180.071 146.614C176.825 143.098 172.078 141.138 167.234 140.078C160.74 138.645 153.779 138.657 147.565 140.911C142.61 142.706 138.344 145.812 133.773 148.347C125.694 152.833 116.652 155.554 107.312 156.31C96.9221 157.137 85.3182 155.851 77.2857 162.092C62.5714 173.522 72.8182 199.279 59.1039 211.75C55.4026 215.113 50.461 216.932 46.2208 219.67C41.9805 222.408 38.1883 226.787 38.8701 231.59C39.1948 233.899 40.5325 235.981 42.0779 237.8C48.7143 245.622 59.8571 249.72 70.3961 248.501C80.9351 247.282 90.5844 240.9 95.7208 232.116C97.0195 229.917 98.0714 227.51 100.117 225.911C104.214 222.72 110.227 224.013 115.539 223.859C127.351 223.516 138.078 213.967 139.11 202.856C139.552 198.109 138.695 192.584 142.312 189.252C145.227 186.557 149.786 186.581 153.773 185.754C161.097 184.241 166.429 179.243 169.773 173.142C171.305 170.337 171.149 167.201 173.422 164.873C175.844 162.313 180.24 163.532 182.403 159.599Z" fill="#1B1B1B"/>
<g opacity="0.1">
<path opacity="0.1" d="M97.6299 158.252C101.938 157.905 106.197 157.14 110.338 155.967C109.169 156.12 108 156.249 106.825 156.341C98.6818 156.984 89.7728 156.341 82.4351 159.042C87.4351 158.558 92.6754 158.644 97.6299 158.252Z" fill="black"/>
<path opacity="0.1" d="M90.3831 227.853C88.3377 229.446 87.2597 231.859 85.987 234.058C82.0518 240.749 75.7499 245.924 68.1818 248.679C68.7597 248.642 69.3377 248.593 69.9156 248.526C80.4545 247.301 90.1039 240.93 95.2403 232.147C96.539 229.948 97.5844 227.534 99.6364 225.942L99.987 225.685C96.4221 225.605 93.0065 225.807 90.3831 227.853Z" fill="black"/>
<path opacity="0.1" d="M179.584 146.651C176.338 143.135 171.558 141.181 166.747 140.115C160.253 138.682 153.292 138.7 147.071 140.954L146.656 141.114C150.316 140.917 153.986 141.225 157.552 142.026C162.364 143.092 167.149 145.046 170.39 148.568C173.63 152.09 174.994 157.413 172.721 161.553C170.558 165.486 166.162 164.261 163.688 166.803C161.416 169.124 161.571 172.267 160.039 175.072C157.162 180.321 152.805 184.744 146.987 186.845C149.02 186.391 151.201 186.189 153.227 185.773C160.552 184.254 165.883 179.262 169.227 173.161C170.766 170.355 170.61 167.213 172.877 164.892C175.357 162.35 179.753 163.569 181.909 159.642C184.182 155.514 182.825 150.185 179.584 146.651Z" fill="black"/>
<path opacity="0.1" d="M144.039 187.69C140.052 188.511 135.494 188.492 132.578 191.181C128.961 194.52 129.818 200.045 129.377 204.792C128.604 213.091 122.416 220.521 114.409 223.896H115C126.812 223.553 137.532 213.998 138.565 202.893C139.013 198.14 138.156 192.615 141.773 189.282C142.602 188.537 143.576 187.95 144.643 187.555L144.039 187.69Z" fill="black"/>
</g>
<path d="M182.597 215.345C182.058 216.246 180.948 216.662 179.916 217.023C169.227 220.735 157.981 224.515 146.708 222.953C146.286 221.28 145.87 219.602 145.455 217.93C144.853 215.504 144.247 213.079 143.636 210.653C143.351 209.495 143.058 208.326 142.825 207.15C142.422 205.293 142.293 203.392 142.442 201.502C142.51 200.817 142.641 200.139 142.831 199.475C143.165 198.266 143.723 197.124 144.481 196.1C144.61 195.934 144.747 195.769 144.89 195.61C145.532 194.879 146.311 194.267 147.188 193.803C149.104 192.81 151.734 192.388 152.507 190.464C152.805 189.459 152.776 188.391 152.422 187.402C151.773 184.952 150.597 182.649 149.87 180.223C148.948 177.16 150.338 177.35 153.474 176.609C159.123 175.268 165.032 174.306 170.831 175.384C170.558 178.085 170.292 180.854 171.013 183.488C171.734 186.122 173.662 188.621 176.435 189.35C176.844 189.46 177.279 189.527 177.734 189.619C178.336 189.71 178.907 189.933 179.403 190.268C179.744 190.535 180.016 190.872 180.195 191.255C180.477 191.901 180.663 192.581 180.747 193.276C181.764 199.703 182.498 206.161 182.948 212.65V212.895C183.082 213.727 182.96 214.577 182.597 215.345Z" fill="#F2F2F2"/>
<path d="M127.571 204.792C125.143 208.277 124.325 212.515 123.584 216.632L118.87 242.419C118.221 245.947 117.643 249.824 119.558 252.918C120.208 253.965 121.117 254.872 121.591 255.98C121.949 257.096 122.184 258.243 122.292 259.404C123.396 265.315 129.558 269.303 135.74 270.736C137.974 271.257 140.584 271.459 142.344 270.056C144.292 268.531 144.292 265.627 143.143 263.533C141.994 261.438 139.896 259.955 137.864 258.553L131.13 253.873L135.026 225.697C135.312 223.651 136.325 220.999 138.52 221.226C140.52 221.428 142.058 224.178 143.838 223.29C144.395 222.934 144.788 222.39 144.935 221.771C145.714 219.462 145.5 216.975 145.279 214.555L144.474 205.821C144.208 202.985 144.981 200.859 145.344 198.195C145.766 195.089 143.571 196.032 140.864 196.7C135.662 197.999 130.578 200.467 127.571 204.792Z" fill="#F2F2F2"/>
<path d="M211.305 247.141C210.81 247.927 210.078 248.554 209.201 248.942C203.944 251.738 197.761 252.559 191.89 251.239C190.536 250.864 189.162 250.562 187.773 250.333C185.552 250.075 183.292 250.492 181.052 250.333C176.506 250.008 172.513 247.331 169.364 244.207C167.468 242.37 165.747 239.362 167.513 237.39C168.006 236.914 168.619 236.563 169.295 236.371C169.97 236.178 170.686 236.149 171.377 236.287C172.752 236.576 174.078 237.042 175.318 237.672C179.664 239.572 184.313 240.781 189.078 241.249C192.325 241.567 196.455 241.047 197.578 238.137C198.123 236.722 197.74 235.154 197.357 233.69C196.31 229.68 195.262 225.668 194.214 221.654C194.142 221.304 194.011 220.967 193.825 220.656C193.771 220.572 193.708 220.494 193.636 220.423C193.222 220.098 192.721 219.886 192.188 219.811C189.766 219.247 187.344 218.334 185.61 216.65C184.474 215.454 183.569 214.08 182.935 212.589C182.753 212.215 182.584 211.836 182.409 211.456C181.078 208.528 179.675 205.527 178.591 202.452C177.834 200.373 177.275 198.235 176.922 196.063C176.636 194.183 176.48 193.319 177.571 192.486C177.864 192.278 178.175 192.093 178.5 191.935C179 191.683 179.565 191.432 180.162 191.193L180.74 190.967C182.516 190.297 184.342 189.748 186.201 189.325C190.708 188.339 195.519 190.397 198.61 193.65C201.701 196.902 203.305 201.159 204.331 205.416C205.357 209.673 205.883 214.034 207.169 218.224C207.669 219.866 208.292 221.483 208.721 223.124C209.181 225.077 209.508 227.055 209.701 229.047C210.312 234.123 210.92 239.199 211.526 244.275C211.75 245.23 211.673 246.227 211.305 247.141Z" fill="#F2F2F2"/>
<path d="M144.63 244.936C145.929 252.752 142.195 260.439 138.584 267.6C140.63 269.009 143.13 269.707 145.571 270.313C161.913 274.365 178.901 275.571 195.701 273.872C196.104 271.226 196.481 268.421 195.331 265.983C194.617 264.47 193.383 263.239 192.597 261.756C191.299 259.306 191.429 256.458 191.571 253.738L192.734 230.567C184.675 227.063 175.331 230.346 166.468 230.818C161.877 231.063 157.227 230.536 152.701 231.302C150.351 231.7 142.961 232.796 141.851 235.081C140.74 237.366 144.234 242.45 144.63 244.936Z" fill="#F2F2F2"/>
<path opacity="0.05" d="M144.63 244.936C145.929 252.752 142.195 260.439 138.584 267.6C140.63 269.009 143.13 269.707 145.571 270.313C161.913 274.365 178.901 275.571 195.701 273.872C196.104 271.226 196.481 268.421 195.331 265.983C194.617 264.47 193.383 263.239 192.597 261.756C191.299 259.306 191.429 256.458 191.571 253.738L192.734 230.567C184.675 227.063 175.331 230.346 166.468 230.818C161.877 231.063 157.227 230.536 152.701 231.302C150.351 231.7 142.961 232.796 141.851 235.081C140.74 237.366 144.234 242.45 144.63 244.936Z" fill="black"/>
<path d="M165.98 267.367C157.247 265.652 148.662 262.816 139.747 262.62C139.299 262.577 138.848 262.658 138.448 262.853C138.013 263.192 137.722 263.669 137.63 264.194C136.708 267.195 135.883 270.219 135.156 273.266C132.74 283.391 131.552 294.575 136.864 303.665C136.812 300.713 138.779 297.95 141.409 296.315C144.039 294.679 147.188 294.018 150.305 293.748C153.422 293.479 156.753 293.589 159.656 294.796C161.684 295.665 163.434 297.023 164.73 298.732C166.026 300.442 166.823 302.443 167.039 304.535L197.721 305.472C197.9 305.522 198.09 305.528 198.273 305.491C198.456 305.454 198.626 305.374 198.768 305.259C198.91 305.144 199.019 304.997 199.086 304.832C199.152 304.667 199.174 304.489 199.149 304.314C200.28 295.03 200.239 285.652 199.026 276.377C198.688 273.786 198.643 270.191 195.552 269.217C191.864 268.053 186.032 269.413 182.091 269.254C176.675 269.039 171.287 268.408 165.98 267.367Z" fill="#1B1B1B"/>
<path d="M193.831 221.991L193.734 234.854L162.695 235.828C157 236.012 151.26 236.196 145.708 237.39C144.11 237.733 142.533 238.162 140.961 238.584C139.325 232.931 137.714 227.008 138.143 221.244C138.261 219.689 138.549 218.15 139 216.65C139.987 213.416 141.838 210.365 142.825 207.168C143.222 205.923 143.441 204.634 143.474 203.334C143.4 202.036 143.183 200.748 142.825 199.493C142.54 198.464 142.405 197.403 142.422 196.339L144.883 195.622C144.955 195.898 145.013 196.167 145.065 196.449C145.169 197.031 145.253 197.625 145.312 198.219C145.451 199.691 145.494 201.17 145.442 202.648C145.357 205.6 144.935 208.889 146.89 211.223C149.429 214.218 154.312 213.753 158.299 213.005L168.74 211.039C172.039 210.427 175.721 209.557 177.442 206.831C178.176 205.508 178.563 204.037 178.571 202.544V202.25C178.727 198.996 178.383 195.739 177.552 192.578C177.299 191.586 176.987 190.605 176.636 189.644H177.682C178.284 189.735 178.855 189.957 179.351 190.293C179.692 190.559 179.964 190.897 180.143 191.279L180.721 191.053C183.025 199.936 186.822 208.415 191.968 216.166C192.629 217.053 193.154 218.025 193.526 219.051C193.68 219.608 193.768 220.179 193.786 220.754C193.838 221.115 193.831 221.55 193.831 221.991Z" fill="#CC5347"/>
<path d="M161.039 183.059C171.439 183.059 179.87 175.106 179.87 165.296C179.87 155.486 171.439 147.533 161.039 147.533C150.639 147.533 142.208 155.486 142.208 165.296C142.208 175.106 150.639 183.059 161.039 183.059Z" fill="#F2F2F2"/>
<path d="M127.571 204.791C125.143 208.277 124.325 212.515 123.584 216.631L118.87 242.419C118.221 245.947 117.643 249.824 119.558 252.917C120.208 253.965 121.117 254.871 121.591 255.98C121.949 257.096 122.184 258.243 122.292 259.404C123.396 265.315 129.558 269.302 135.74 270.736C137.974 271.256 140.584 271.459 142.344 270.056C144.292 268.531 144.292 265.627 143.143 263.532C141.994 261.438 139.896 259.955 137.864 258.553L131.13 253.873L135.026 225.697C135.286 223.669 130.578 200.467 127.571 204.791Z" fill="#F2F2F2"/>
<path d="M204.338 205.453C205.364 209.71 205.89 214.071 207.175 218.261C207.675 219.909 208.299 221.52 208.727 223.161C209.187 225.112 209.515 227.088 209.708 229.078L211.532 244.305C211.743 245.246 211.664 246.223 211.305 247.123C210.809 247.907 210.076 248.534 209.201 248.924C203.941 251.713 197.761 252.533 191.89 251.221C190.538 250.84 189.163 250.537 187.773 250.314C185.552 250.051 183.292 250.474 181.052 250.314C176.506 249.99 172.513 247.319 169.364 244.22C167.468 242.382 165.747 239.369 167.513 237.396C168.006 236.92 168.619 236.57 169.295 236.377C169.97 236.184 170.686 236.156 171.377 236.294C172.752 236.585 174.078 237.053 175.318 237.684C179.665 239.58 184.314 240.786 189.078 241.255C192.325 241.58 196.455 241.059 197.578 238.143C198.123 236.729 197.74 235.16 197.357 233.697L194.214 221.66C194.084 221.244 203.312 201.202 204.338 205.453Z" fill="#F2F2F2"/>
<path d="M149.383 170.766C148.545 167.93 147.37 164.383 149.727 162.46C150.574 161.843 151.595 161.474 152.662 161.4C157.954 160.788 163.429 163.728 168.493 162.16C170.109 161.662 171.537 160.733 172.606 159.487C173.674 158.24 174.338 156.728 174.515 155.134C174.693 153.539 174.378 151.93 173.608 150.501C172.838 149.072 171.646 147.884 170.175 147.079C167.961 145.854 165.318 145.615 162.766 145.401C156.045 144.819 149.039 144.28 142.753 146.626C136.467 148.972 131.169 155.012 132.467 161.265C133.071 164.248 135.026 166.815 137.013 169.191C138.539 170.998 144.662 179.604 147.123 179.482C150.591 179.298 149.929 172.609 149.383 170.766Z" fill="#1B1B1B"/>
<path opacity="0.1" d="M170.175 147.08C169.8 146.875 169.409 146.697 169.006 146.547C170.147 147.523 170.995 148.764 171.467 150.146C171.939 151.529 172.018 153.004 171.696 154.424C171.374 155.844 170.662 157.16 169.632 158.239C168.601 159.318 167.288 160.123 165.825 160.573C160.76 162.142 155.286 159.201 149.993 159.814C148.926 159.888 147.906 160.257 147.058 160.874C144.701 162.797 145.877 166.343 146.714 169.179C147.26 171.017 147.922 177.712 144.467 177.896H144.409C145.48 178.882 146.448 179.525 147.136 179.488C150.591 179.304 149.929 172.616 149.383 170.772C148.545 167.936 147.37 164.389 149.727 162.466C150.574 161.849 151.595 161.481 152.662 161.406C157.955 160.794 163.429 163.734 168.493 162.166C170.109 161.668 171.537 160.74 172.606 159.493C173.674 158.246 174.338 156.734 174.515 155.14C174.693 153.546 174.378 151.937 173.608 150.507C172.838 149.078 171.646 147.89 170.175 147.086V147.08Z" fill="black"/>
<path d="M169.481 20.8993L159.403 26.9266L165.519 16.434C163.786 15.1287 161.64 14.4066 159.422 14.3821H159.26C158.56 14.3917 157.86 14.3425 157.169 14.2351L153.753 16.2748L155.221 13.7634C152.798 12.9683 150.705 11.4667 149.247 9.47575L143.13 13.1509L146.994 6.52951C143.416 2.48072 138.597 0 133.299 0C126.942 0 121.279 3.56489 117.623 9.12049C116.542 10.7886 115.01 12.1556 113.185 13.0813C111.359 14.0069 109.305 14.458 107.234 14.3882H106.89C99.8701 14.3882 94.1818 21.8916 94.1818 31.153C94.1818 40.4144 99.8701 47.9178 106.89 47.9178C108.434 47.911 109.953 47.5516 111.318 46.8704C113.706 45.774 116.318 45.181 118.974 45.1323C121.629 45.0837 124.264 45.5806 126.695 46.5886C128.752 47.4567 130.98 47.9054 133.234 47.9054C135.487 47.9054 137.716 47.4567 139.773 46.5886C142.187 45.6014 144.798 45.1156 147.429 45.1642C150.059 45.2128 152.648 45.7947 155.02 46.8704C156.37 47.5373 157.871 47.8881 159.396 47.8933C166.416 47.8933 172.104 40.3837 172.104 31.1285C172.152 27.5653 171.25 24.0478 169.481 20.8993Z" fill="#F2F2F2"/>
<path opacity="0.03" d="M150.481 45.4311C146.82 44.7763 143.036 45.1644 139.61 46.5459C137.553 47.4121 135.325 47.8598 133.071 47.8598C130.818 47.8598 128.59 47.4121 126.532 46.5459C124.1 45.54 121.466 45.0448 118.811 45.0945C116.156 45.1442 113.544 45.7377 111.156 46.8338C109.79 47.5124 108.271 47.8697 106.727 47.8751C100.494 47.8751 95.3052 41.952 94.2273 34.1361C95.4701 33.2769 96.5279 32.2021 97.3442 30.9694C101 25.4077 106.662 21.8428 113.02 21.8428C119.377 21.8428 124.968 25.3648 128.604 30.8653C129.698 32.5196 131.226 33.8798 133.041 34.8143C134.855 35.7489 136.894 36.2263 138.961 36.2003H139.123C144.091 36.2003 148.39 39.9551 150.481 45.4311Z" fill="black"/>
</svg>
