<svg width="220" height="320" viewBox="0 0 220 320" fill="none" xmlns="http://www.w3.org/2000/svg">
  <path opacity="0.1" d="M111 320.906C172.304 320.906 222 311.952 222 300.906C222 289.861 172.304 280.906 111 280.906C49.6964 280.906 0 289.861 0 300.906C0 311.952 49.6964 320.906 111 320.906Z" fill="black" />
  <path d="M87.052 279.696L99.4805 272.78C97.7997 270.072 95.6511 267.648 93.1234 265.608L69.6753 272.511L88.052 262.318C83.503 259.968 78.3835 258.775 73.1974 258.858C68.0113 258.94 62.9373 260.295 58.475 262.789C54.0127 265.283 50.3157 268.83 47.748 273.081C45.1803 277.332 43.8304 282.141 43.8312 287.034C43.8312 302.598 57.2013 303.137 73.7013 303.137C90.2013 303.137 103.571 302.598 103.571 287.034C103.577 283.096 102.703 279.202 101.007 275.604L87.052 279.696Z" fill="#F2F2F2" />
  <path opacity="0.1" d="M90.2143 294.831C88.8916 293.58 87.4133 292.484 85.8117 291.567C83.552 290.152 81.2208 288.712 78.5585 288.228C76.2208 287.806 73.8117 288.161 71.4156 288.038C67.2814 287.798 63.3902 286.115 60.5 283.316C58.8052 281.662 57.4676 279.641 55.4286 278.361C53.2273 277.001 50.4351 276.707 47.8247 277.044C47.0682 277.151 46.3183 277.297 45.578 277.478C44.4061 280.545 43.8084 283.78 43.8117 287.04C43.8117 302.604 57.1819 303.143 73.6819 303.143C81.6883 303.143 88.9546 303.015 94.3182 301.104L93.4221 299.523C92.5674 297.838 91.4896 296.261 90.2143 294.831Z" fill="black" />
  <path d="M148.208 217.573C147.259 218.359 146.527 219.351 146.078 220.464C144.967 223.735 148.071 226.945 148.37 230.369C148.604 233.088 147.071 235.624 146.201 238.234C145.219 241.475 145.283 244.919 146.384 248.126C147.485 251.333 149.573 254.159 152.383 256.242C152.981 256.721 153.688 257.064 154.448 257.246C155.075 257.318 155.712 257.267 156.318 257.099C156.924 256.93 157.488 256.647 157.974 256.266C159.482 255.232 160.632 253.8 161.279 252.15C161.818 250.529 162.109 248.844 162.143 247.146L162.604 240.592C163.084 233.75 163.519 226.694 161.753 219.974C161.175 217.769 160.104 212.703 157.403 212.397C154.701 212.091 150 215.919 148.208 217.573Z" fill="#1B1B1B" />
  <path d="M193.507 189.421C190.263 200.166 187.912 211.133 186.474 222.222C186.266 223.784 186.052 225.426 185.052 226.687C183.059 229.217 179.065 229.058 175.753 228.647C174.958 228.608 174.183 228.399 173.487 228.035C172.24 227.239 171.968 225.646 171.818 224.231C169.55 203.373 168.035 182.459 167.273 161.49C167.24 160.688 194.994 160.614 197.37 162.715C199.747 164.816 197.903 172.675 197.37 175.352C196.5 180.117 194.929 184.76 193.507 189.421Z" fill="#FFB9B9" />
  <path opacity="0.05" d="M193.507 189.421C190.263 200.166 187.912 211.133 186.474 222.222C186.266 223.784 186.052 225.426 185.052 226.687C183.059 229.217 179.065 229.058 175.753 228.647C174.958 228.608 174.183 228.399 173.487 228.035C172.24 227.239 171.968 225.646 171.818 224.231C169.55 203.373 168.035 182.459 167.273 161.49C167.24 160.688 194.994 160.614 197.37 162.715C199.747 164.816 197.903 172.675 197.37 175.352C196.5 180.117 194.929 184.76 193.507 189.421Z" fill="black" />
  <path d="M135.714 158.507L146.955 181.826C150.695 189.581 154.461 197.421 156.247 205.77C156.963 209.257 157.421 212.788 157.617 216.336C157.888 219.377 157.788 222.437 157.318 225.456C156.909 227.698 156.156 229.879 155.825 232.133C154.526 241.118 159.922 249.571 163.617 257.932C166.809 265.113 168.841 272.705 169.643 280.455C169.981 283.756 170.169 287.26 172.169 289.986C175.825 288.951 179.396 288.056 183.208 288.461C183.89 283.187 180.357 278.329 179.059 273.147C176.675 263.653 181.942 253.675 180.149 244.065C179.175 238.858 176.156 233.958 176.403 228.678C176.864 219.049 178.779 209.322 176.831 199.889C174.636 189.225 168.325 179.529 166.929 168.749C165.857 160.467 167.578 151.31 162.688 144.352C152.007 143.758 140.961 149.705 135.714 158.507Z" fill="#FFB9B9" />
  <path d="M172.656 304.95C171.532 304.987 170.221 304.95 169.526 304.111C169.187 303.623 168.992 303.058 168.961 302.475C168.429 298.783 168.169 295.06 168.182 291.333C168.182 289.974 168.247 288.528 169.052 287.407C169.643 286.723 170.316 286.106 171.058 285.57C172.779 284.069 174.032 281.894 176.253 281.202C177.226 280.935 178.258 280.923 179.238 281.165C180.218 281.408 181.11 281.897 181.818 282.58C183.219 283.99 184.087 285.797 184.286 287.72C184.61 289.998 184.338 292.479 185.617 294.457C186.123 295.223 186.831 295.848 187.403 296.571C189.351 299.021 191.097 303.817 187.078 304.809C182.818 305.856 177.078 304.815 172.656 304.95Z" fill="#1B1B1B" />
  <path d="M182.403 20.5057C184.675 16.3651 183.318 11.0361 180.071 7.52022C176.825 4.00433 172.078 2.04424 167.234 0.984572C160.74 -0.448735 153.779 -0.436475 147.565 1.81762C142.61 3.61231 138.344 6.7178 133.773 9.25365C125.694 13.7397 116.652 16.4607 107.312 17.2165C96.9221 18.0434 85.3182 16.7571 77.2857 22.9987C62.5714 34.4284 72.8182 60.1851 59.1039 72.6561C55.4026 76.0188 50.461 77.838 46.2208 80.576C41.9805 83.314 38.1883 87.6936 38.8701 92.4958C39.1948 94.805 40.5325 96.8875 42.0779 98.7067C48.7143 106.529 59.8571 110.626 70.3961 109.408C80.9351 108.189 90.5844 101.806 95.7208 93.0225C97.0195 90.8236 98.0714 88.4163 100.117 86.8176C104.214 83.6264 110.227 84.9188 115.539 84.7657C127.351 84.4227 138.078 74.8734 139.11 63.7622C139.552 59.0152 138.695 53.4902 142.312 50.158C145.227 47.4629 149.786 47.4874 153.773 46.6605C161.097 45.1476 166.429 40.1494 169.773 34.0487C171.305 31.2433 171.149 28.1072 173.422 25.7796C175.844 23.2192 180.24 24.4382 182.403 20.5057Z" fill="#1B1B1B" />
  <g opacity="0.1">
    <path opacity="0.1" d="M97.6299 19.1583C101.938 18.8118 106.197 18.0461 110.338 16.8735C109.169 17.0267 108 17.1553 106.825 17.2472C98.6818 17.8903 89.7728 17.2472 82.4351 19.9484C87.4351 19.4645 92.6754 19.5503 97.6299 19.1583Z" fill="black" />
    <path opacity="0.1" d="M90.3831 88.7595C88.3377 90.352 87.2597 92.7654 85.987 94.9643C82.0518 101.656 75.7499 106.831 68.1818 109.585C68.7597 109.549 69.3377 109.5 69.9156 109.432C80.4545 108.207 90.1039 101.837 95.2403 93.0532C96.539 90.8543 97.5844 88.441 99.6364 86.8484L99.987 86.5911C96.4221 86.5115 93.0065 86.7136 90.3831 88.7595Z" fill="black" />
    <path opacity="0.1" d="M179.584 7.55724C176.338 4.04135 171.558 2.08739 166.747 1.02159C160.253 -0.411715 153.292 -0.393324 147.071 1.86077L146.656 2.02001C150.316 1.82355 153.986 2.13101 157.552 2.93268C162.364 3.99848 167.149 5.95243 170.39 9.47444C173.63 12.9965 174.994 18.3193 172.721 22.46C170.558 26.3924 166.162 25.1673 163.688 27.7093C161.416 30.0308 161.571 33.173 160.039 35.9784C157.162 41.2277 152.805 45.6501 146.987 47.7511C149.02 47.2978 151.201 47.0957 153.227 46.6792C160.552 45.1601 165.883 40.168 169.227 34.0673C170.766 31.2619 170.61 28.1197 172.877 25.7982C175.357 23.2562 179.753 24.4752 181.909 20.5489C184.182 16.4205 182.825 11.0915 179.584 7.55724Z" fill="black" />
    <path opacity="0.1" d="M144.039 48.5962C140.052 49.417 135.494 49.3986 132.578 52.0876C128.961 55.4258 129.818 60.9508 129.377 65.6979C128.604 73.9976 122.416 81.4275 114.409 84.8025H115C126.812 84.4595 137.532 74.9041 138.565 63.799C139.013 59.0458 138.156 53.5209 141.773 50.1887C142.602 49.4428 143.576 48.8561 144.643 48.4614L144.039 48.5962Z" fill="black" />
  </g>
  <path d="M182.597 76.2516C182.058 77.152 180.948 77.5685 179.916 77.9299C169.227 81.6418 157.981 85.4211 146.708 83.8592C146.286 82.187 145.87 80.5086 145.455 78.8365C144.853 76.4109 144.247 73.9853 143.636 71.5597C143.351 70.402 143.058 69.2321 142.825 68.056C142.422 66.1992 142.293 64.2987 142.442 62.4085C142.51 61.7235 142.641 61.0453 142.831 60.3811C143.165 59.1728 143.723 58.0301 144.481 57.0061C144.61 56.8407 144.747 56.6753 144.89 56.5161C145.532 55.7857 146.311 55.1731 147.188 54.7091C149.104 53.7168 151.734 53.2942 152.507 51.3709C152.805 50.3652 152.776 49.2979 152.422 48.3082C151.773 45.8581 150.597 43.5551 149.87 41.1295C148.948 38.0668 150.338 38.2567 153.474 37.5156C159.123 36.1741 165.032 35.2125 170.831 36.2905C170.558 38.9917 170.292 41.7604 171.013 44.3942C171.734 47.0281 173.662 49.5272 176.435 50.2561C176.844 50.3663 177.279 50.4337 177.734 50.5256C178.336 50.6169 178.907 50.8392 179.403 51.1749C179.744 51.441 180.016 51.7787 180.195 52.161C180.477 52.8075 180.663 53.4877 180.747 54.1823C181.764 60.6098 182.498 67.0678 182.948 73.5565V73.8015C183.082 74.633 182.96 75.4832 182.597 76.2516Z" fill="#FFB9B9" />
  <path d="M127.571 65.698C125.143 69.1833 124.325 73.422 123.584 77.5381L118.87 103.325C118.221 106.854 117.643 110.731 119.558 113.824C120.208 114.871 121.117 115.778 121.591 116.887C121.949 118.002 122.184 119.15 122.292 120.311C123.396 126.222 129.558 130.209 135.74 131.642C137.974 132.163 140.584 132.365 142.344 130.962C144.292 129.437 144.292 126.534 143.143 124.439C141.994 122.344 139.896 120.862 137.864 119.459L131.13 114.78L135.026 86.6035C135.312 84.5577 136.325 81.9054 138.52 82.1321C140.52 82.3342 142.058 85.0844 143.838 84.1963C144.395 83.8403 144.788 83.2969 144.935 82.6772C145.714 80.368 145.5 77.8811 145.279 75.4617L144.474 66.7271C144.208 63.8911 144.981 61.7656 145.344 59.1011C145.766 55.9956 143.571 56.9389 140.864 57.6066C135.662 58.9051 130.578 61.3736 127.571 65.698Z" fill="#FFB9B9" />
  <path d="M211.305 108.048C210.81 108.833 210.078 109.46 209.201 109.848C203.944 112.645 197.761 113.465 191.89 112.145C190.536 111.77 189.162 111.468 187.773 111.239C185.552 110.982 183.292 111.398 181.052 111.239C176.506 110.914 172.513 108.238 169.364 105.114C167.468 103.276 165.747 100.269 167.513 98.2963C168.006 97.8204 168.619 97.4697 169.295 97.277C169.97 97.0843 170.686 97.0556 171.377 97.1937C172.752 97.4826 174.078 97.9484 175.318 98.5781C179.664 100.479 184.313 101.687 189.078 102.155C192.325 102.474 196.455 101.953 197.578 99.0436C198.123 97.6286 197.74 96.0606 197.357 94.5966C196.31 90.5867 195.262 86.5746 194.214 82.5605C194.142 82.2101 194.011 81.873 193.825 81.5621C193.771 81.4781 193.708 81.4 193.636 81.3294C193.222 81.0039 192.721 80.792 192.188 80.7168C189.766 80.1533 187.344 79.2407 185.61 77.5562C184.474 76.3603 183.569 74.9858 182.935 73.4952C182.753 73.1215 182.584 72.7418 182.409 72.362C181.078 69.4341 179.675 66.4328 178.591 63.3579C177.834 61.2795 177.275 59.1415 176.922 56.9693C176.636 55.0888 176.48 54.2251 177.571 53.3921C177.864 53.184 178.175 52.9996 178.5 52.8408C179 52.5897 179.565 52.3386 180.162 52.0997L180.74 51.8731C182.516 51.203 184.342 50.6544 186.201 50.2315C190.708 49.2453 195.519 51.3034 198.61 54.5559C201.701 57.8084 203.305 62.0655 204.331 66.3225C205.357 70.5796 205.883 74.9407 207.169 79.1304C207.669 80.772 208.292 82.389 208.721 84.0306C209.181 85.9833 209.508 87.9617 209.701 89.9537C210.312 95.0295 210.92 100.105 211.526 105.181C211.75 106.136 211.673 107.133 211.305 108.048Z" fill="#FFB9B9" />
  <path d="M144.63 105.843C145.929 113.658 142.195 121.346 138.584 128.506C140.63 129.915 143.13 130.613 145.571 131.22C161.913 135.272 178.901 136.478 195.701 134.778C196.104 132.132 196.481 129.327 195.331 126.889C194.617 125.376 193.383 124.145 192.597 122.663C191.299 120.212 191.429 117.364 191.571 114.645L192.734 91.4728C184.675 87.9692 175.331 91.2523 166.468 91.7239C161.877 91.9689 157.227 91.4422 152.701 92.2078C150.351 92.606 142.961 93.7024 141.851 95.9871C140.74 98.2718 144.234 103.356 144.63 105.843Z" fill="#FFB9B9" />
  <path opacity="0.05" d="M144.63 105.843C145.929 113.658 142.195 121.346 138.584 128.506C140.63 129.915 143.13 130.613 145.571 131.22C161.913 135.272 178.901 136.478 195.701 134.778C196.104 132.132 196.481 129.327 195.331 126.889C194.617 125.376 193.383 124.145 192.597 122.663C191.299 120.212 191.429 117.364 191.571 114.645L192.734 91.4728C184.675 87.9692 175.331 91.2523 166.468 91.7239C161.877 91.9689 157.227 91.4422 152.701 92.2078C150.351 92.606 142.961 93.7024 141.851 95.9871C140.74 98.2718 144.234 103.356 144.63 105.843Z" fill="black" />
  <path d="M165.98 128.273C157.247 126.558 148.662 123.722 139.747 123.526C139.299 123.483 138.848 123.564 138.448 123.759C138.013 124.099 137.722 124.575 137.63 125.101C136.708 128.102 135.883 131.126 135.156 134.172C132.74 144.297 131.552 155.482 136.864 164.572C136.812 161.619 138.779 158.857 141.409 157.221C144.039 155.586 147.188 154.924 150.305 154.655C153.422 154.385 156.753 154.496 159.656 155.702C161.684 156.572 163.434 157.929 164.73 159.639C166.026 161.349 166.823 163.35 167.039 165.441L197.721 166.379C197.9 166.428 198.09 166.435 198.273 166.397C198.456 166.36 198.626 166.28 198.768 166.165C198.91 166.05 199.019 165.904 199.086 165.739C199.152 165.574 199.174 165.396 199.149 165.221C200.28 155.937 200.239 146.559 199.026 137.284C198.688 134.693 198.643 131.097 195.552 130.123C191.864 128.959 186.032 130.319 182.091 130.16C176.675 129.945 171.287 129.314 165.98 128.273Z" fill="#1B1B1B" />
  <path d="M193.831 82.8972L193.734 95.7602L162.695 96.7341C157 96.9179 151.26 97.1017 145.708 98.2961C144.11 98.6391 142.533 99.0679 140.961 99.4905C139.325 93.8369 137.714 87.9138 138.143 82.1499C138.261 80.595 138.549 79.0556 139 77.556C139.987 74.3219 141.838 71.2715 142.825 68.0741C143.222 66.8292 143.441 65.5395 143.474 64.2397C143.4 62.9417 143.183 61.6545 142.825 60.3992C142.54 59.3697 142.405 58.3085 142.422 57.2447L144.883 56.528C144.955 56.8037 145.013 57.0732 145.065 57.3549C145.169 57.9368 145.253 58.531 145.312 59.1251C145.451 60.5974 145.494 62.0764 145.442 63.5537C145.357 66.5061 144.935 69.7953 146.89 72.129C149.429 75.1243 154.312 74.6588 158.299 73.9115L168.74 71.9453C172.039 71.3328 175.721 70.463 177.442 67.7372C178.176 66.4136 178.563 64.9434 178.571 63.4496V63.1555C178.727 59.9021 178.383 56.6446 177.552 53.4838C177.299 52.4915 176.987 51.5115 176.636 50.5498H177.682C178.284 50.6411 178.855 50.8634 179.351 51.1991C179.692 51.4652 179.964 51.8029 180.143 52.1852L180.721 51.9586C183.025 60.8424 186.822 69.3208 191.968 77.0721C192.629 77.9593 193.154 78.9307 193.526 79.9571C193.68 80.5136 193.768 81.0849 193.786 81.6599C193.838 82.0213 193.831 82.4562 193.831 82.8972Z" fill="#CC5347" />
  <path d="M161.039 43.9654C171.439 43.9654 179.87 36.0125 179.87 26.2022C179.87 16.3918 171.439 8.43896 161.039 8.43896C150.639 8.43896 142.208 16.3918 142.208 26.2022C142.208 36.0125 150.639 43.9654 161.039 43.9654Z" fill="#FFB9B9" />
  <path d="M127.571 65.6976C125.143 69.1829 124.325 73.4215 123.584 77.5377L118.87 103.325C118.221 106.853 117.643 110.73 119.558 113.824C120.208 114.871 121.117 115.778 121.591 116.886C121.949 118.002 122.184 119.149 122.292 120.31C123.396 126.221 129.558 130.209 135.74 131.642C137.974 132.163 140.584 132.365 142.344 130.962C144.292 129.437 144.292 126.534 143.143 124.439C141.994 122.344 139.896 120.862 137.864 119.459L131.13 114.779L135.026 86.6031C135.286 84.5756 130.578 61.3732 127.571 65.6976Z" fill="#FFB9B9" />
  <path d="M204.338 66.3591C205.364 70.6161 205.89 74.9773 207.175 79.1669C207.675 80.8146 208.299 82.4256 208.727 84.0671C209.187 86.0178 209.515 87.9941 209.708 89.9841L211.532 105.211C211.743 106.152 211.664 107.129 211.305 108.029C210.809 108.813 210.076 109.44 209.201 109.83C203.941 112.619 197.761 113.439 191.89 112.127C190.538 111.746 189.163 111.443 187.773 111.22C185.552 110.957 183.292 111.38 181.052 111.22C176.506 110.896 172.513 108.225 169.364 105.126C167.468 103.288 165.747 100.275 167.513 98.3022C168.006 97.8263 168.619 97.4756 169.295 97.2829C169.97 97.0901 170.686 97.0615 171.377 97.1997C172.752 97.4907 174.078 97.9585 175.318 98.5901C179.665 100.486 184.314 101.692 189.078 102.161C192.325 102.486 196.455 101.965 197.578 99.0495C198.123 97.6345 197.74 96.0665 197.357 94.6025L194.214 82.5664C194.084 82.1499 203.312 62.1081 204.338 66.3591Z" fill="#FFB9B9" />
  <path d="M149.383 31.6719C148.545 28.8359 147.37 25.2894 149.727 23.3661C150.574 22.7492 151.595 22.3807 152.662 22.3064C157.954 21.6939 163.429 24.634 168.493 23.066C170.109 22.568 171.537 21.6396 172.606 20.3929C173.674 19.1461 174.338 17.6343 174.515 16.0399C174.693 14.4455 174.378 12.8366 173.608 11.4074C172.838 9.9782 171.646 8.78979 170.175 7.9856C167.961 6.76055 165.318 6.52166 162.766 6.30727C156.045 5.72538 149.039 5.18635 142.753 7.53232C136.467 9.87829 131.169 15.9178 132.467 22.1717C133.071 25.1547 135.026 27.7211 137.013 30.0977C138.539 31.9047 144.662 40.5107 147.123 40.3881C150.591 40.2044 149.929 33.5156 149.383 31.6719Z" fill="#1B1B1B" />
  <path opacity="0.1" d="M170.175 7.98604C169.8 7.7815 169.409 7.60337 169.006 7.45312C170.147 8.42906 170.995 9.67035 171.467 11.0528C171.939 12.4352 172.018 13.9103 171.696 15.3305C171.374 16.7507 170.662 18.0662 169.632 19.1454C168.601 20.2246 167.288 21.0296 165.825 21.4799C160.76 23.048 155.286 20.1079 149.993 20.7204C148.926 20.7947 147.906 21.1632 147.058 21.7801C144.701 23.7034 145.877 27.2499 146.714 30.0859C147.26 31.9235 147.922 38.6184 144.467 38.8021H144.409C145.48 39.7883 146.448 40.4314 147.136 40.3947C150.591 40.2109 149.929 33.5222 149.383 31.6785C148.545 28.8425 147.37 25.296 149.727 23.3726C150.574 22.7558 151.595 22.3873 152.662 22.313C157.955 21.7004 163.429 24.6406 168.493 23.0725C170.109 22.5745 171.537 21.6462 172.606 20.3994C173.674 19.1527 174.338 17.6409 174.515 16.0465C174.693 14.452 174.378 12.8431 173.608 11.4139C172.838 9.98474 171.646 8.79634 170.175 7.99215V7.98604Z" fill="black" />
</svg>