<svg width="20" height="20" viewBox="0 0 20 20" fill="none" xmlns="http://www.w3.org/2000/svg">
<path fill-rule="evenodd" clip-rule="evenodd" d="M8.87888 2.99635C9.3374 2.0673 10.6622 2.0673 11.1207 2.99635L12.6287 6.05176C12.6894 6.17474 12.8067 6.25997 12.9424 6.27969L16.3142 6.76965C17.3395 6.91863 17.7489 8.1786 17.007 8.90177L14.5671 11.2801C14.4689 11.3758 14.4241 11.5137 14.4473 11.6489L15.0232 15.0071C15.1984 16.0282 14.1266 16.8069 13.2096 16.3248L10.1937 14.7393C10.0723 14.6755 9.9273 14.6755 9.80591 14.7393L6.79005 16.3248C5.87301 16.8069 4.80122 16.0282 4.97636 15.0071L5.55234 11.6489C5.57552 11.5137 5.53071 11.3758 5.43251 11.2801L2.99262 8.90177C2.25072 8.1786 2.66011 6.91863 3.68539 6.76965L7.05723 6.27969C7.19294 6.25997 7.31026 6.17474 7.37095 6.05176L8.87888 2.99635ZM10.3734 3.36516C10.2206 3.05547 9.779 3.05547 9.62616 3.36516L8.11823 6.42056C7.93615 6.78949 7.5842 7.04521 7.17706 7.10437L3.80522 7.59432C3.46346 7.64398 3.327 8.06397 3.5743 8.30503L6.01418 10.6833C6.30879 10.9705 6.44323 11.3843 6.37368 11.7897L5.7977 15.148C5.73932 15.4883 6.09658 15.7479 6.40226 15.5872L9.41813 14.0017C9.78228 13.8102 10.2173 13.8102 10.5815 14.0017L13.5973 15.5872C13.903 15.7479 14.2603 15.4883 14.2019 15.148L13.6259 11.7897C13.5564 11.3843 13.6908 10.9705 13.9854 10.6833L16.4253 8.30503C16.6726 8.06397 16.5361 7.64398 16.1944 7.59432L12.8226 7.10437C12.4154 7.04521 12.0635 6.78949 11.8814 6.42056L10.3734 3.36516Z" fill="#FFA000"/>
</svg>
