<svg width="50" height="50" viewBox="0 0 50 50" fill="none" xmlns="http://www.w3.org/2000/svg">
<path d="M27.0189 2.98096L32.2767 14.9731C32.4745 15.4245 32.7898 15.8144 33.1897 16.1023C33.5896 16.3902 34.0594 16.5655 34.5501 16.6099L47.3587 17.7583C48.808 17.9692 49.3861 19.7466 48.3353 20.77L38.6869 28.8755C37.9056 29.5317 37.5501 30.563 37.765 31.5591L40.5697 44.688C40.8158 46.1294 39.3041 47.231 38.0072 46.5474L26.8275 40.0005C26.4058 39.753 25.9258 39.6225 25.4369 39.6225C24.948 39.6225 24.4679 39.753 24.0462 40.0005L12.8666 46.5435C11.5736 47.2231 10.058 46.1255 10.3041 44.6841L13.1087 31.5552C13.3197 30.5591 12.9681 29.5278 12.1869 28.8716L2.53453 20.7739C1.48765 19.7544 2.06578 17.9731 3.51109 17.7622L16.3197 16.6138C16.8104 16.5694 17.2803 16.3941 17.6802 16.1062C18.0801 15.8183 18.3953 15.4284 18.5931 14.977L23.8509 2.98486C24.5033 1.67236 26.3705 1.67236 27.0189 2.98096Z" fill="#FDD835"/>
<path d="M26.1992 15.5352L25.3086 6.69922C25.2734 6.20703 25.1718 5.36328 25.9609 5.36328C26.5859 5.36328 26.9257 6.66406 26.9257 6.66406L29.5976 13.7578C30.6054 16.457 30.1914 17.3828 29.2187 17.9297C28.1015 18.5547 26.4531 18.0664 26.1992 15.5352Z" fill="#FFFF8D"/>
<path d="M37.2187 27.9336L44.8828 21.9531C45.2617 21.6367 45.9453 21.1328 45.3984 20.5586C44.9648 20.1055 43.7929 20.7578 43.7929 20.7578L37.0859 23.3789C35.0859 24.0703 33.7578 25.0937 33.6406 26.3828C33.4882 28.1016 35.0312 29.4258 37.2187 27.9336Z" fill="#F4B400"/>
</svg>
