<svg width="340" height="162" viewBox="0 0 340 162" fill="none" xmlns="http://www.w3.org/2000/svg">
<g clip-path="url(#clip0)">
<path d="M280.694 144.863C280.721 144.837 280.749 144.812 280.78 144.788C280.855 144.681 280.951 144.581 281.064 144.487L290.455 136.648L298.192 130.192H311.39L310.457 130.97L308.796 132.357L303.649 136.65L292.62 145.854L302.843 158.107C303.261 158.606 302.548 159.323 301.26 159.706L296.33 161.171C295.84 161.32 295.3 161.401 294.751 161.407C294.057 161.407 293.478 161.253 293.235 160.962L280.526 145.73C280.426 145.589 280.389 145.435 280.418 145.283C280.448 145.131 280.543 144.987 280.694 144.863Z" fill="#FFB9B9"/>
<path d="M298.454 144.394L285.159 141.446C284.556 141.312 284.067 141.041 283.799 140.692C283.531 140.343 283.506 139.945 283.73 139.585L287.63 133.323C287.854 132.963 288.309 132.671 288.894 132.512C289.478 132.352 290.146 132.337 290.749 132.47L304.044 135.417C304.647 135.551 305.136 135.823 305.404 136.172C305.672 136.52 305.697 136.918 305.473 137.278L301.573 143.541C301.463 143.719 301.294 143.882 301.077 144.022C300.86 144.161 300.6 144.273 300.31 144.353C300.02 144.432 299.707 144.476 299.389 144.483C299.071 144.49 298.753 144.46 298.454 144.394H298.454Z" fill="#1B1B1B"/>
<path d="M287.149 140.912C287.059 140.912 286.97 140.903 286.886 140.884H286.886C286.701 140.842 286.551 140.758 286.47 140.65C286.388 140.543 286.382 140.42 286.451 140.31L291.333 132.602C291.403 132.491 291.544 132.402 291.724 132.353C291.905 132.305 292.11 132.301 292.295 132.343C292.48 132.384 292.63 132.468 292.712 132.576C292.793 132.684 292.8 132.806 292.73 132.917L287.848 140.624C287.794 140.709 287.699 140.782 287.574 140.833C287.449 140.885 287.301 140.912 287.149 140.912Z" fill="white"/>
<path d="M308.602 160.26V132.421C308.601 132.395 308.604 132.369 308.61 132.344C308.633 132.021 308.813 131.709 309.129 131.446C309.445 131.184 309.883 130.982 310.388 130.866C310.711 130.789 311.055 130.75 311.401 130.751H316.911C317.653 130.751 318.364 130.928 318.889 131.241C319.414 131.554 319.709 131.978 319.71 132.421V160.26C319.709 160.703 319.414 161.127 318.889 161.44C318.364 161.753 317.653 161.929 316.911 161.93H311.401C310.659 161.929 309.948 161.753 309.423 161.44C308.898 161.127 308.603 160.703 308.602 160.26Z" fill="#FFB9B9"/>
<path d="M305.612 142.886V136.205C305.613 135.821 305.869 135.453 306.324 135.182C306.779 134.91 307.395 134.758 308.038 134.757H322.222C322.865 134.758 323.482 134.91 323.937 135.182C324.392 135.453 324.647 135.821 324.648 136.205V142.886C324.647 143.269 324.392 143.637 323.937 143.909C323.482 144.18 322.865 144.333 322.222 144.333H308.038C307.395 144.333 306.779 144.18 306.324 143.909C305.869 143.637 305.613 143.269 305.612 142.886Z" fill="#1B1B1B"/>
<path d="M316.465 143.628C316.267 143.628 316.077 143.581 315.937 143.497C315.797 143.414 315.718 143.301 315.718 143.183V134.943C315.718 134.825 315.797 134.712 315.937 134.628C316.077 134.544 316.267 134.498 316.465 134.498C316.663 134.498 316.852 134.544 316.992 134.628C317.132 134.712 317.211 134.825 317.211 134.943V143.183C317.211 143.301 317.132 143.414 316.992 143.497C316.852 143.581 316.663 143.628 316.465 143.628Z" fill="white"/>
<path d="M290.959 111.247L250.148 98.6938C249.49 98.49 248.993 98.1388 248.767 97.7172C248.542 97.2955 248.605 96.8377 248.944 96.4438L251.467 93.5219C251.809 93.1291 252.397 92.833 253.104 92.6984C253.811 92.5638 254.578 92.6017 255.238 92.8038L296.05 105.357C296.255 105.42 296.445 105.498 296.617 105.59C297.085 105.835 297.403 106.167 297.518 106.533C297.634 106.899 297.54 107.277 297.253 107.607L294.73 110.529C294.562 110.724 294.33 110.897 294.05 111.039C293.769 111.181 293.443 111.288 293.093 111.354C292.815 111.406 292.526 111.433 292.235 111.433C291.791 111.433 291.353 111.369 290.959 111.247Z" fill="#FFB9B9"/>
<path d="M291.752 111.969L271.911 107.295C271.248 107.096 270.745 106.749 270.511 106.329C270.276 105.909 270.331 105.451 270.661 105.055L275.186 99.4913C275.52 99.0964 276.103 98.7962 276.806 98.656C277.16 98.5863 277.533 98.5595 277.905 98.577C278.276 98.5944 278.638 98.6559 278.969 98.7578L296.887 105.238C296.957 105.259 297.021 105.286 297.078 105.317C297.534 105.563 297.762 106.151 297.944 106.624L297.973 106.697C298.023 106.824 298.066 106.933 298.11 107.01L298.125 107.039C298.141 107.071 298.157 107.103 298.168 107.133C298.328 107.518 298.252 107.925 297.952 108.28L295.481 111.218C295.245 111.494 294.886 111.727 294.443 111.89C294 112.053 293.491 112.14 292.97 112.141C292.547 112.142 292.13 112.082 291.752 111.969Z" fill="#1B1B1B"/>
<path d="M306.388 96.7212C317.42 96.7212 326.364 91.3853 326.364 84.803C326.364 78.2207 317.42 72.8848 306.388 72.8848C295.355 72.8848 286.412 78.2207 286.412 84.803C286.412 91.3853 295.355 96.7212 306.388 96.7212Z" fill="#FFB9B9"/>
<path d="M307.554 91.2245L307.575 90.7791C306.186 90.7561 304.962 90.7041 304.042 90.3031C303.781 90.1829 303.567 90.0306 303.413 89.8566C303.26 89.6826 303.171 89.491 303.153 89.2946C303.137 89.1747 303.167 89.0541 303.242 88.9424C303.317 88.8306 303.433 88.7305 303.583 88.6501C304.194 88.3423 305.177 88.4419 305.893 88.6379L306.511 88.8069L305.326 83.6426L304.587 83.703L305.594 88.096C304.621 87.9252 303.719 87.9987 303.101 88.3099C302.864 88.4335 302.678 88.588 302.558 88.7616C302.437 88.9351 302.386 89.1229 302.407 89.3103C302.429 89.5741 302.547 89.8318 302.753 90.0654C302.96 90.299 303.249 90.5029 303.602 90.6628C304.784 91.1782 306.32 91.2038 307.554 91.2245Z" fill="#1B1B1B"/>
<path d="M300.929 84.0815H296.909V84.5269H300.929V84.0815Z" fill="#1B1B1B"/>
<path d="M313.62 84.0815H309.599V84.5269H313.62V84.0815Z" fill="#1B1B1B"/>
<path d="M288.178 136.756C286.859 136.711 285.83 135.417 285.83 133.794V112.934C285.83 111.918 286.044 110.906 286.467 109.922L286.467 109.922C286.621 109.568 286.803 109.216 287.009 108.877C288.262 106.788 290.462 104.947 293.364 103.559C293.691 103.4 294.034 103.245 294.382 103.1C296.072 102.389 297.937 101.837 299.91 101.467C299.855 101.32 299.828 101.17 299.827 101.02C299.828 100.459 300.202 99.9212 300.867 99.5246C301.532 99.128 302.433 98.9049 303.373 98.9043H308.598C309.539 98.9049 310.44 99.128 311.105 99.5246C311.769 99.9212 312.143 100.459 312.144 101.02C312.144 101.17 312.116 101.319 312.062 101.466C316.146 102.237 319.712 103.765 322.243 105.827C324.775 107.889 326.14 110.378 326.141 112.934V133.794C326.141 135.458 325.076 136.762 323.715 136.762H288.256C288.23 136.762 288.204 136.76 288.178 136.756Z" fill="#1B1B1B"/>
<path d="M311.261 138.66C311.029 138.417 310.903 138.144 310.894 137.864L310.109 110.474C310.102 110.255 310.168 110.037 310.303 109.833C310.438 109.629 310.639 109.443 310.894 109.285L310.895 109.285C311.15 109.127 311.455 109 311.792 108.913C312.129 108.825 312.492 108.778 312.859 108.775L318.369 108.72C319.063 108.712 319.736 108.859 320.259 109.131C320.782 109.404 321.116 109.783 321.197 110.194C321.209 110.249 321.215 110.304 321.215 110.359L322.003 137.751C322.014 138.193 321.73 138.621 321.214 138.939C320.698 139.257 319.992 139.44 319.25 139.449L313.743 139.505C313.24 139.51 312.745 139.434 312.309 139.285C311.872 139.136 311.51 138.921 311.261 138.66V138.66Z" fill="#FFB9B9"/>
<path d="M308.946 119.851C308.737 119.632 308.614 119.388 308.586 119.137L308.821 106.447C308.764 106.006 309.003 105.569 309.485 105.232C309.967 104.896 310.653 104.687 311.393 104.652L316.885 104.395C317.553 104.365 318.218 104.477 318.76 104.713C318.816 104.738 318.872 104.769 318.927 104.792C319.065 104.86 319.208 104.924 319.356 104.983L319.475 105.034C320.264 105.367 321.159 105.745 321.203 106.113L324.507 118.494C324.556 118.847 324.412 119.201 324.097 119.502C324.023 119.576 323.939 119.646 323.845 119.711C323.762 119.769 323.672 119.823 323.575 119.872C323.12 120.117 322.541 120.264 321.93 120.292L311.594 120.69C311.065 120.714 310.535 120.648 310.066 120.5C309.598 120.351 309.209 120.126 308.946 119.851V119.851Z" fill="#1B1B1B"/>
<path d="M289.591 133.83C289.393 133.83 289.203 133.783 289.063 133.699C288.923 133.616 288.844 133.502 288.844 133.384V111.783C288.844 111.665 288.923 111.552 289.063 111.468C289.203 111.385 289.393 111.338 289.591 111.338C289.789 111.338 289.978 111.385 290.118 111.468C290.258 111.552 290.337 111.665 290.337 111.783V133.384C290.337 133.502 290.258 133.616 290.118 133.699C289.978 133.783 289.788 133.83 289.591 133.83Z" fill="white"/>
<path d="M324.505 81.9715L289.802 74.3972C289.618 74.357 289.449 74.2955 289.305 74.2164C289.161 74.1372 289.044 74.0418 288.961 73.9357C288.879 73.8296 288.832 73.7149 288.824 73.598C288.815 73.4811 288.846 73.3644 288.913 73.2546L289.031 72.9234C291.741 68.5034 300.724 65.7217 308.132 67.3386L318.811 69.6694C326.219 71.2864 329.439 76.5203 326.729 80.9403L326.42 81.441C326.284 81.6628 326.006 81.8434 325.647 81.9428C325.288 82.0423 324.877 82.0526 324.505 81.9715Z" fill="#1B1B1B"/>
<path d="M326.374 82.392C278.006 83.4568 273.779 79.8308 288.517 74.1291L291.643 70.6968L327.476 78.491L326.374 82.392Z" fill="#1B1B1B"/>
<path d="M316.89 69.1262C317.157 68.5962 316.013 67.9226 314.335 67.6216C312.657 67.3207 311.081 67.5064 310.813 68.0364C310.546 68.5664 311.69 69.2401 313.368 69.541C315.046 69.8419 316.623 69.6562 316.89 69.1262Z" fill="#1B1B1B"/>
<path d="M105.849 0C71.1677 0 42.957 16.8312 42.957 37.5228C42.9471 42.8193 44.8269 48.0564 48.4714 52.8861C58.3277 65.938 80.3348 75.0455 105.849 75.0455C122.526 75.04 138.517 71.085 150.31 64.0493C162.102 57.0136 168.731 47.4727 168.74 37.5228C168.74 16.8312 140.525 0 105.849 0ZM157.883 52.6069C153.134 58.4302 145.737 63.3402 136.537 66.7768C127.337 70.2134 116.703 72.0384 105.849 72.0437C81.331 72.0437 60.3252 62.8971 51.9178 50.0224C49.3122 46.0386 47.9794 41.7991 47.9883 37.5228C47.9883 18.4882 73.945 3.00182 105.849 3.00182C137.752 3.00182 163.709 18.4882 163.709 37.5228C163.72 42.7501 161.727 47.9097 157.883 52.6069Z" fill="#FFB9B9"/>
<path d="M105.849 75.1569C93.9359 75.1512 82.2687 73.1353 72.1944 69.3419C62.12 65.5486 54.0494 60.1326 48.9143 53.7193C48.7093 53.4636 48.6203 53.1803 48.6562 52.8977C48.6921 52.615 48.8515 52.3429 49.1187 52.1085L49.1524 52.0791C49.4192 51.8485 49.7829 51.6638 50.2071 51.5436C50.6313 51.4234 51.1011 51.3719 51.5692 51.3942C52.0373 51.4166 52.4874 51.512 52.8742 51.6709C53.2609 51.8298 53.5708 52.0466 53.7728 52.2996C63.3144 64.2261 83.7554 71.9325 105.849 71.9325C115.945 71.9171 125.859 70.3271 134.608 67.3202C143.356 64.3133 150.635 59.9939 155.722 54.7906C155.959 54.5462 156.299 54.3436 156.71 54.2032C157.12 54.0629 157.585 53.9899 158.058 53.9916C158.526 53.9909 158.986 54.0646 159.39 54.2052C159.795 54.3459 160.129 54.5483 160.358 54.7916L160.388 54.8224C160.62 55.0679 160.742 55.3455 160.739 55.6276C160.737 55.9097 160.61 56.1865 160.373 56.4306C154.808 62.116 146.849 66.835 137.285 70.1197C127.721 73.4044 116.884 75.1409 105.849 75.1569Z" fill="#FF6859"/>
<path d="M91.6733 40.9547C93.3828 40.9481 95.0431 41.2957 96.3708 41.9381C97.6986 42.5805 98.6114 43.478 98.9535 44.4773C99.2956 45.4766 99.0458 46.5157 98.2467 47.4174C97.4476 48.319 96.1487 49.0272 94.5718 49.4211C92.995 49.8149 91.2379 49.8701 89.6004 49.577C87.963 49.284 86.5469 48.661 85.5937 47.8143C84.6405 46.9677 84.2094 45.9499 84.3739 44.9347C84.5385 43.9195 85.2885 42.9699 86.496 42.2479C87.1727 41.8388 87.9788 41.5138 88.8675 41.2918C89.7562 41.0699 90.7099 40.9553 91.6733 40.9547ZM91.6733 39.0786C89.5998 39.0779 87.5726 39.4441 85.8479 40.1308C84.1232 40.8176 82.7786 41.794 81.9841 42.9367C81.1896 44.0794 80.9808 45.337 81.3843 46.5505C81.7877 47.7639 82.7852 48.8788 84.2506 49.754C85.716 50.6292 87.5835 51.2256 89.6169 51.4676C91.6504 51.7095 93.7584 51.5864 95.6745 51.1135C97.5906 50.6407 99.2287 49.8396 100.382 48.8113C101.534 47.7831 102.15 46.5739 102.152 45.3368C102.153 43.6779 101.05 42.0866 99.0849 40.913C97.1198 39.7393 94.4538 39.0795 91.6733 39.0786H91.6733ZM113.517 30.1334C114.465 30.1363 115.377 29.9143 116.051 29.5162C116.725 29.1182 117.106 28.5767 117.111 28.0109C117.111 28.0037 117.111 27.9965 117.111 27.9892C117.115 27.7121 117.028 27.4371 116.854 27.18C116.681 26.9229 116.424 26.6888 116.099 26.4909C115.773 26.2931 115.386 26.1354 114.958 26.0269C114.531 25.9183 114.071 25.8611 113.607 25.8585C113.584 25.8584 113.562 25.8584 113.539 25.8585C112.589 25.8532 111.675 26.0732 110.996 26.4703C110.318 26.8673 109.932 27.4089 109.923 27.9758C109.914 28.5426 110.283 29.0884 110.949 29.493C111.614 29.8977 112.522 30.128 113.472 30.1333C113.487 30.1334 113.502 30.1334 113.517 30.1334ZM121.03 40.9547C122.74 40.9481 124.4 41.2957 125.728 41.9381C127.056 42.5805 127.968 43.478 128.31 44.4773C128.653 45.4766 128.403 46.5157 127.604 47.4174C126.805 48.319 125.506 49.0272 123.929 49.4211C122.352 49.8149 120.595 49.8701 118.957 49.577C117.32 49.284 115.904 48.661 114.951 47.8143C113.997 46.9677 113.566 45.9499 113.731 44.9347C113.895 43.9195 114.645 42.9699 115.853 42.2479C116.53 41.8388 117.336 41.5138 118.224 41.2918C119.113 41.0698 120.067 40.9553 121.03 40.9547ZM121.03 39.0786C118.958 39.0786 116.932 39.4452 115.209 40.1322C113.486 40.8191 112.143 41.7954 111.35 42.9378C110.557 44.0801 110.349 45.3371 110.753 46.5498C111.158 47.7624 112.156 48.8764 113.621 49.7507C115.086 50.625 116.954 51.2204 118.986 51.4616C121.019 51.7028 123.125 51.579 125.04 51.1058C126.955 50.6327 128.591 49.8314 129.743 48.8033C130.894 47.7753 131.509 46.5666 131.509 45.3301C131.509 44.5092 131.237 43.6962 130.711 42.9378C130.184 42.1793 129.413 41.4901 128.44 40.9096C127.467 40.3291 126.311 39.8686 125.04 39.5544C123.769 39.2403 122.406 39.0786 121.03 39.0786Z" fill="#FFB9B9"/>
<path d="M118.93 34.4352H113.539L110.226 30.4082C109.959 30.1258 109.586 29.8843 109.135 29.7026C108.685 29.5209 108.17 29.404 107.631 29.3612C107.093 29.3183 106.544 29.3506 106.03 29.4555C105.516 29.5605 105.049 29.7352 104.667 29.9659L96.6148 34.596C95.9557 34.9974 95.5816 35.535 95.5704 36.0969C95.5704 37.2628 96.9854 37.6782 97.648 37.9127C102.758 39.6683 104.555 39.8626 104.555 40.7403V45.156C104.555 45.4403 104.744 45.713 105.081 45.914C105.418 46.1151 105.875 46.228 106.352 46.228C106.828 46.228 107.285 46.1151 107.622 45.914C107.959 45.713 108.149 45.4403 108.149 45.156V39.1255C108.149 38.2411 104.735 37.5174 102.724 36.5793L108.216 33.1286C110.316 35.0382 111.282 36.5793 112.484 36.5793H118.93C119.407 36.5798 119.864 36.4673 120.202 36.2665C120.539 36.0658 120.729 35.7933 120.73 35.509C120.731 35.2247 120.542 34.9518 120.206 34.7504C119.869 34.549 119.413 34.4356 118.936 34.4352H118.93V34.4352Z" fill="#FFB9B9"/>
<path d="M55.2621 95.2798C53.7141 95.2798 52.4325 97.9686 52.1841 101.494H22.4049C22.1565 97.9686 20.8749 95.2798 19.3269 95.2798C17.6012 95.2798 16.2021 98.6185 16.2021 102.737C16.2021 106.856 17.6012 110.194 19.3269 110.194C20.8749 110.194 22.1565 107.506 22.4049 103.98H52.1841C52.4325 107.506 53.7141 110.194 55.262 110.194C56.9878 110.194 58.3868 106.856 58.3868 102.737C58.3868 98.6186 56.9878 95.2798 55.2621 95.2798Z" fill="#FFB9B9"/>
<path d="M69.7672 91.7269C65.3534 87.0071 58.2075 83.409 49.6674 81.6063C41.1273 79.8036 31.7787 79.92 23.3721 81.9336C14.9654 83.9471 8.07719 87.7199 3.99716 92.5454C-0.0828641 97.3709 -1.07491 102.918 1.20679 108.149C3.48848 113.379 8.88745 117.934 16.3928 120.961C23.8981 123.987 32.9951 125.278 41.9804 124.591C50.9657 123.904 59.2232 121.286 65.2067 117.228C71.1902 113.17 74.4894 107.95 74.4866 102.545C74.4846 98.7582 72.86 95.0341 69.7672 91.7269ZM37.2346 122.991C28.2058 122.963 19.5639 120.8 13.2041 116.977C6.84433 113.153 3.28591 107.981 3.30927 102.594C3.33263 97.2069 6.93587 92.0455 13.3287 88.2414C19.7216 84.4374 28.3821 82.3013 37.411 82.3017C46.4399 82.302 55.1 84.4388 61.4921 88.2433C67.8841 92.0478 71.4862 97.2095 71.5084 102.596C71.5306 107.983 67.971 113.155 61.6104 116.979C55.2498 120.802 46.6074 122.964 37.5786 122.991C37.4639 122.991 37.3493 122.991 37.2346 122.991Z" fill="#FFB9B9"/>
<path d="M37.2534 124.882C30.1554 124.884 23.2033 123.68 17.211 121.41C16.9117 121.296 16.6807 121.129 16.5514 120.931L16.5326 120.903C16.4025 120.707 16.3811 120.492 16.4716 120.289C16.5621 120.086 16.7596 119.905 17.035 119.774C17.3013 119.641 17.6324 119.562 17.9797 119.549C18.3269 119.536 18.6717 119.591 18.9632 119.704C25.3325 122.123 32.8682 123.21 40.3864 122.797C47.9046 122.383 54.9793 120.49 60.4991 117.417C66.0189 114.343 69.671 110.263 70.8817 105.817C72.0923 101.37 70.793 96.8101 67.1877 92.8523C67.0186 92.6708 66.9518 92.4618 66.997 92.2559C67.0422 92.0501 67.1971 91.8584 67.4387 91.709C67.6774 91.5541 67.9932 91.449 68.3395 91.4093C68.6859 91.3695 69.0445 91.3972 69.3624 91.4883L69.4091 91.5013C69.7281 91.5904 69.9914 91.7377 70.1612 91.9218C73.2472 95.3221 74.8003 99.1423 74.6683 103.008C74.5364 106.874 72.7239 110.654 69.4085 113.976C66.093 117.299 61.3882 120.05 55.7546 121.962C50.1211 123.874 43.7519 124.88 37.2708 124.882H37.2534Z" fill="#FF6859"/>
<path d="M174.445 80.3237C169.552 80.3225 164.707 80.8963 160.186 82.0124C155.665 83.1285 151.556 84.765 148.096 86.8285C144.635 88.8921 141.889 91.3421 140.016 94.0388C138.142 96.7355 137.177 99.626 137.177 102.545C137.176 105.464 138.139 108.355 140.011 111.052C141.882 113.749 144.626 116.2 148.086 118.264C151.546 120.328 155.653 121.966 160.173 123.083C164.694 124.2 169.539 124.775 174.431 124.775H174.445C174.686 124.775 174.923 124.775 175.164 124.769C184.98 124.656 194.324 122.236 201.165 118.035C208.006 113.833 211.791 108.191 211.696 102.334C211.601 96.4765 207.635 90.8785 200.659 86.7569C193.683 82.6353 184.262 80.3233 174.445 80.3237V80.3237ZM182.037 122.487C177.335 123.124 172.461 123.162 167.732 122.599C163.004 122.035 158.528 120.882 154.598 119.216C150.667 117.55 147.37 115.407 144.922 112.929C142.474 110.45 140.93 107.692 140.391 104.833C139.852 101.974 140.331 99.0797 141.795 96.3388C143.259 93.5978 145.676 91.072 148.889 88.9265C152.101 86.781 156.035 85.0641 160.436 83.8879C164.836 82.7117 169.603 82.1027 174.425 82.1008H174.445C182.873 82.1005 191.006 83.9532 197.289 87.3047C203.573 90.6563 207.565 95.2717 208.505 100.269C209.444 105.266 207.264 110.295 202.382 114.393C197.499 118.492 190.256 121.374 182.037 122.487Z" fill="#FFB9B9"/>
<path d="M174.445 124.886C165.206 124.886 156.293 122.848 149.421 119.163C142.548 115.479 138.203 110.408 137.219 104.927C136.235 99.4462 138.683 93.9417 144.092 89.4727C149.501 85.0036 157.489 81.8856 166.518 80.7185C166.741 80.6901 166.97 80.6883 167.193 80.7133L167.271 80.7221C167.646 80.7654 167.984 80.8845 168.228 81.0594C168.473 81.2342 168.609 81.4539 168.613 81.6816C168.618 81.9093 168.49 82.1309 168.253 82.309C168.015 82.4872 167.682 82.611 167.309 82.6595C159.077 83.7124 151.79 86.5452 146.851 90.6123C141.911 94.6795 139.669 99.6933 140.556 104.688C141.442 109.683 145.396 114.305 151.654 117.664C157.912 121.024 166.032 122.883 174.45 122.884C174.779 122.882 175.099 122.881 175.424 122.875C175.787 122.866 176.143 122.934 176.431 123.066C176.718 123.198 176.918 123.386 176.997 123.597C177.082 123.801 177.044 124.017 176.889 124.206C176.734 124.395 176.472 124.545 176.149 124.63V124.63C175.929 124.69 175.709 124.749 175.488 124.807C175.301 124.856 175.1 124.883 174.896 124.885C174.746 124.886 174.597 124.886 174.445 124.886Z" fill="#FF6859"/>
<path d="M192.822 101.604C191.83 101.575 190.848 101.74 190.028 102.074C189.207 102.408 188.592 102.893 188.277 103.456H184.608L181.93 98.6503C181.83 98.4702 181.638 98.3135 181.381 98.2023C181.124 98.0912 180.814 98.0314 180.496 98.0314H180.468C180.146 98.0343 179.834 98.0995 179.578 98.2172C179.323 98.3349 179.139 98.4987 179.053 98.6841L174.857 107.422L169.924 89.7488C169.867 89.5443 169.694 89.3577 169.433 89.2204C169.172 89.0831 168.841 89.0035 168.493 88.9949C168.146 88.9863 167.804 89.0493 167.526 89.1733C167.247 89.2972 167.048 89.4747 166.963 89.6757L161.964 103.456H156.363C155.962 103.456 155.579 103.55 155.296 103.719C155.013 103.888 154.854 104.117 154.854 104.356C154.854 104.595 155.013 104.824 155.296 104.992C155.579 105.161 155.962 105.256 156.363 105.256H163.153C163.489 105.256 163.816 105.189 164.08 105.066C164.345 104.943 164.533 104.77 164.615 104.575L168.142 94.3233L172.98 111.648C173.035 111.85 173.205 112.034 173.461 112.17C173.716 112.307 174.043 112.386 174.385 112.396H174.47C174.798 112.396 175.117 112.332 175.379 112.215C175.641 112.097 175.831 111.932 175.922 111.744L180.609 101.976L182.09 104.637C182.191 104.817 182.383 104.973 182.64 105.084C182.898 105.195 183.206 105.255 183.524 105.256H188.343C188.631 105.711 189.12 106.112 189.758 106.415C190.396 106.718 191.159 106.913 191.968 106.978C192.776 107.044 193.599 106.978 194.349 106.788C195.1 106.598 195.751 106.29 196.232 105.897C196.714 105.505 197.009 105.042 197.086 104.557C197.163 104.073 197.02 103.585 196.67 103.145C196.321 102.705 195.779 102.33 195.102 102.059C194.424 101.788 193.637 101.631 192.822 101.604H192.822Z" fill="#FFB9B9"/>
<path d="M339.627 162H271.322C271.223 162 271.128 161.977 271.058 161.935C270.988 161.893 270.949 161.836 270.949 161.777C270.949 161.718 270.988 161.662 271.058 161.62C271.128 161.578 271.223 161.555 271.322 161.555H339.627C339.726 161.555 339.821 161.578 339.891 161.62C339.961 161.662 340 161.718 340 161.777C340 161.836 339.961 161.893 339.891 161.935C339.821 161.977 339.726 162 339.627 162Z" fill="#3F3D56"/>
</g>
<defs>
<clipPath id="clip0">
<rect width="340" height="162" fill="white"/>
</clipPath>
</defs>
</svg>
