<svg width="24" height="24" viewBox="0 0 24 24" fill="none" xmlns="http://www.w3.org/2000/svg">
<path d="M3 4L5.303 18.076C5.4223 18.8053 5.74129 19.4873 6.22459 20.0463C6.7079 20.6053 7.33661 21.0195 8.041 21.243L8.369 21.347C10.7316 22.097 13.2684 22.097 15.631 21.347L15.959 21.243C16.6633 21.0196 17.2919 20.6056 17.7752 20.0467C18.2585 19.4879 18.5775 18.8061 18.697 18.077L21 4" stroke="#B2483E" stroke-width="2" stroke-linecap="round" stroke-linejoin="round"/>
<path d="M12 6C16.9706 6 21 5.10457 21 4C21 2.89543 16.9706 2 12 2C7.02944 2 3 2.89543 3 4C3 5.10457 7.02944 6 12 6Z" stroke="#B2483E" stroke-width="2" stroke-linecap="round" stroke-linejoin="round"/>
</svg>
