<svg width="24" height="24" viewBox="0 0 24 24" fill="none" xmlns="http://www.w3.org/2000/svg">
<path fill-rule="evenodd" clip-rule="evenodd" d="M12.3112 4.16796C12.1123 3.94401 11.7625 3.94401 11.5636 4.16796L5.12904 11.4121C4.8426 11.7346 5.07153 12.2442 5.50287 12.2442H7.93751C8.21365 12.2442 8.43751 12.468 8.43751 12.7442V18.9942C8.43751 19.2704 8.66137 19.4942 8.93751 19.4942H14.9375C15.2137 19.4942 15.4375 19.2704 15.4375 18.9942V12.7442C15.4375 12.468 15.6614 12.2442 15.9375 12.2442H18.3719C18.8032 12.2442 19.0322 11.7346 18.7457 11.4121L12.3112 4.16796L12.685 3.83591L12.3112 4.16796ZM10.8159 3.50387C11.4126 2.83204 12.4621 2.83204 13.0589 3.50387L19.4934 10.748C20.3527 11.7155 19.6659 13.2442 18.3719 13.2442H16.4375V18.9942C16.4375 19.8227 15.7659 20.4942 14.9375 20.4942H8.93751C8.10908 20.4942 7.43751 19.8227 7.43751 18.9942V13.2442H5.50287C4.20886 13.2442 3.52205 11.7155 4.38139 10.748L10.8159 3.50387Z" fill="white"/>
</svg>
