<svg width="28" height="28" viewBox="0 0 28 28" fill="none" xmlns="http://www.w3.org/2000/svg">
<path d="M24.8624 8.77559L19.2244 3.13775C18.8955 2.81067 18.4509 2.62644 17.987 2.625H10.013C9.5491 2.62644 9.10451 2.81067 8.77559 3.13775L3.13775 8.77559C2.81067 9.10451 2.62644 9.5491 2.625 10.013V17.987C2.62644 18.4509 2.81067 18.8955 3.13775 19.2244L8.77559 24.8624C9.10453 25.1894 9.54911 25.3736 10.013 25.375H17.987C18.4509 25.3736 18.8955 25.1894 19.2244 24.8624L24.8624 19.2244C25.1894 18.8955 25.3736 18.4509 25.375 17.987V10.013C25.3736 9.5491 25.1893 9.10451 24.8622 8.77559H24.8624ZM13.125 8.75C13.125 8.51794 13.2172 8.29538 13.3813 8.13128C13.5454 7.96719 13.7679 7.875 14 7.875C14.2321 7.875 14.4546 7.96719 14.6187 8.13128C14.7828 8.29538 14.875 8.51794 14.875 8.75V14.875C14.875 15.1071 14.7828 15.3296 14.6187 15.4937C14.4546 15.6578 14.2321 15.75 14 15.75C13.7679 15.75 13.5454 15.6578 13.3813 15.4937C13.2172 15.3296 13.125 15.1071 13.125 14.875V8.75ZM14 20.125C13.7404 20.125 13.4867 20.048 13.2708 19.9038C13.055 19.7596 12.8867 19.5546 12.7874 19.3148C12.6881 19.0749 12.6621 18.811 12.7127 18.5564C12.7634 18.3018 12.8884 18.068 13.0719 17.8844C13.2555 17.7009 13.4893 17.5759 13.7439 17.5252C13.9985 17.4746 14.2624 17.5006 14.5023 17.5999C14.7421 17.6992 14.9471 17.8675 15.0913 18.0833C15.2355 18.2992 15.3125 18.5529 15.3125 18.8125C15.3125 19.1606 15.1742 19.4944 14.9281 19.7406C14.6819 19.9867 14.3481 20.125 14 20.125Z" fill="#FFA000"/>
</svg>
