<svg width="20" height="20" viewBox="0 0 20 20" fill="none" xmlns="http://www.w3.org/2000/svg">
<path d="M17.1642 8.22403L14.2959 4.1282L15.6617 3.17236L18.5292 7.2682L17.1642 8.22403Z" fill="#1C2439"/>
<path d="M15.5941 10.3407L14.1608 8.29153L7.3341 13.0715L8.76744 15.119L7.40244 16.0757L3.5791 10.614L4.9441 9.6582L6.37744 11.7065L13.2041 6.92653L11.7708 4.8782L13.1358 3.92236L16.9591 9.3832L15.5941 10.3399V10.3407Z" fill="#1C2439"/>
<path d="M17.5735 5.90238L18.9385 4.94654L17.9827 3.58154L16.6177 4.53738L17.5735 5.90238Z" fill="#1C2439"/>
<path d="M6.24261 15.8717L3.37428 11.7759L2.00928 12.7317L4.87678 16.8275L6.24261 15.8717Z" fill="#1C2439"/>
<path d="M3.92093 15.4622L2.55593 16.418L1.6001 15.053L2.9651 14.0972L3.92093 15.4622Z" fill="#1C2439"/>
</svg>
