<svg width="30" height="30" viewBox="0 0 30 30" fill="none" xmlns="http://www.w3.org/2000/svg">
  <path d="M25.9077 12.3363L21.6052 6.19254L23.654 4.75879L27.9552 10.9025L25.9077 12.3363Z" fill="#A3A3A3" />
  <path d="M23.5527 15.5113L21.4027 12.4375L11.1627 19.6075L13.3127 22.6788L11.2652 24.1138L5.53022 15.9213L7.57772 14.4875L9.72772 17.56L19.9677 10.39L17.8177 7.31754L19.8652 5.88379L25.6002 14.075L23.5527 15.51V15.5113Z" fill="#A3A3A3" />
  <path d="M26.5215 8.85381L28.569 7.42006L27.1352 5.37256L25.0877 6.80631L26.5215 8.85381Z" fill="#A3A3A3" />
  <path d="M9.52522 23.8076L5.22272 17.6638L3.17522 19.0976L7.47647 25.2413L9.52522 23.8076Z" fill="#A3A3A3" />
  <path d="M6.04272 23.1937L3.99522 24.6275L2.56147 22.58L4.60897 21.1462L6.04272 23.1937Z" fill="#A3A3A3" />
</svg>