<svg width="200" height="200" viewBox="0 0 200 200" fill="none" xmlns="http://www.w3.org/2000/svg">
<path d="M168.95 82.2418L140.267 41.2834L153.925 31.7251L182.6 72.6834L168.95 82.2418Z" fill="#E6EAF2"/>
<path d="M153.249 103.408L138.916 82.9168L70.6491 130.717L84.9825 151.192L71.3325 160.758L33.0991 106.142L46.7491 96.5834L61.0825 117.067L129.349 69.2668L115.016 48.7834L128.666 39.2251L166.899 93.8334L153.249 103.4V103.408Z" fill="#E6EAF2"/>
<path d="M173.042 59.0252L186.692 49.4669L177.133 35.8169L163.483 45.3752L173.042 59.0252Z" fill="#E6EAF2"/>
<path d="M59.7327 158.716L31.0494 117.757L17.3994 127.316L46.0744 168.274L59.7327 158.716V158.716Z" fill="#E6EAF2"/>
<path d="M36.516 154.626L22.866 164.184L13.3076 150.534L26.9576 140.976L36.516 154.626Z" fill="#E6EAF2"/>
</svg>
